<svg xmlns="http://www.w3.org/2000/svg" width="70.994" height="32" viewBox="0 0 70.994 32"><g transform="translate(6.333 -1.98)"><rect width="3.41" height="16.797" rx="1.705" transform="translate(-6.333 15.969) rotate(-32.592)" fill="#262626"/><rect width="2.493" height="15.907" rx="1.246" transform="matrix(0.863, -0.506, 0.506, 0.863, 37.596, 16.192)" fill="#262626"/><rect width="2.493" height="15.907" rx="1.246" transform="matrix(0.863, -0.506, 0.506, 0.863, 26.872, 16.063)" fill="#262626"/><rect width="2.493" height="15.906" rx="1.247" transform="matrix(0.863, 0.506, -0.506, 0.863, 28.088, 14.803)" fill="#262626"/><rect width="3.02" height="27.365" rx="1.51" transform="translate(14.224 7.605) rotate(-27.671)" fill="#262626"/><rect width="3.02" height="27.365" rx="1.51" transform="translate(49.279 7.562) rotate(-27.671)" fill="#262626"/><rect width="3.02" height="27.365" rx="1.51" transform="translate(50.934 6.225) rotate(27.671)" fill="#262626"/><rect width="2.493" height="15.906" rx="1.247" transform="matrix(0.863, 0.506, -0.506, 0.863, 38.984, 14.895)" fill="#262626"/><rect width="3.327" height="21.558" rx="1.663" transform="matrix(0.864, 0.504, -0.504, 0.864, 10.055, 10.934)" fill="#262626"/><ellipse cx="1.739" cy="1.646" rx="1.739" ry="1.646" transform="translate(1.76 7.586)" fill="#2ead47"/><ellipse cx="1.739" cy="1.646" rx="1.739" ry="1.646" transform="translate(22.835 30.687)" fill="#2ead47"/><ellipse cx="1.739" cy="1.646" rx="1.739" ry="1.646" transform="translate(27.008 30.687)" fill="#2ead47"/><ellipse cx="1.739" cy="1.646" rx="1.739" ry="1.646" transform="translate(44.843 30.687)" fill="#2ead47"/><g transform="translate(24.893 1.98)"><path d="M189.123-51.06v1.608h.519v-3.217h-.519Z" transform="translate(-173.155 52.669)" fill="#262626"/><path d="M229-51.06v1.608h.519v-3.217H229Z" transform="translate(-209.29 52.669)" fill="#262626"/><path d="M22.152-51.717v.227h.571v-.453h-.571Z" transform="translate(-21.84 52.012)" fill="#262626"/><path d="M31.013-51.717v.227h.571v-.453h-.571Z" transform="translate(-29.87 52.012)" fill="#262626"/><path d="M205.46-51.476v.227h.571V-51.7h-.571Z" transform="translate(-187.961 51.793)" fill="#262626"/><path d="M20.047-42.873v.131l-.184.041a1.454,1.454,0,0,0-.948.6.868.868,0,0,0-.065.578.7.7,0,0,0,.306.365,1.248,1.248,0,0,0,.519.143h.086v-.541l-.148-.016a.331.331,0,0,1-.223-.082c-.068-.057-.075-.077-.062-.156a.289.289,0,0,1,.062-.138,1.314,1.314,0,0,1,.574-.233l.083-.016v.58c0,.453.008.575.034.569s.06.036.1.1a.6.6,0,0,0,.371.263c.119.034.641.036,6.971.036,3.762,0,6.849,0,6.862,0a1.1,1.1,0,0,0,.018-.283v-.283h-.727a6.879,6.879,0,0,1-.727-.018.378.378,0,0,0-.114-.079c-.252-.138-.423-.374-.392-.537a.389.389,0,0,1,.27-.254,4.338,4.338,0,0,1,.883-.011l.114.018-.016-.285a1.293,1.293,0,0,0-.031-.3,3.721,3.721,0,0,0-.8,0c-.652.111-1.049.571-.914,1.056a.811.811,0,0,0,.148.285l.1.131H26.517c-5.52,0-5.681,0-5.787-.043-.088-.036-.114-.061-.135-.131a6.507,6.507,0,0,1-.029-.852V-43h-.519Z" transform="translate(-18.827 43.911)" fill="#262626"/><path d="M200.532-42.006c.717.82.867,1.053.872,1.355,0,.156-.049.222-.21.265a4.05,4.05,0,0,1-.911-.007c-.151-.016-.275-.027-.278-.027s.026.131.062.29c.078.331.029.3.483.335a1.886,1.886,0,0,0,1.109-.156.658.658,0,0,0,.322-.648.953.953,0,0,0-.083-.439,2.8,2.8,0,0,0-.543-.818l-.177-.193-.348-.007-.345-.007Z" transform="translate(-183.017 43.057)" fill="#262626"/><path d="M227.352-15.061a.539.539,0,0,0-.338.111c-.145.116-.161.224-.062.433.01.02-.013.029-.078.029h-.093v.227h.935v-.249h-.192c-.226,0-.327-.05-.327-.159,0-.091.083-.136.252-.136h.138v-.245l-.1-.009C227.433-15.061,227.373-15.063,227.352-15.061Z" transform="translate(-207.283 18.588)" fill="#262626"/></g></g></svg>