<svg xmlns="http://www.w3.org/2000/svg" width="173.667" height="32" viewBox="0 0 173.667 32"><g transform="translate(-115 9.6)"><path d="M115-9.6h12.732a9.049,9.049,0,0,1,5.591,1.617,6.353,6.353,0,0,1,2.29,5.12,4.952,4.952,0,0,1-3.031,4.985v.135a6.219,6.219,0,0,1,4.244,6.2A7.614,7.614,0,0,1,134,14.719a9.68,9.68,0,0,1-5.928,1.549H115ZM126.452.5a2.14,2.14,0,0,0,2.358-2.29,2.145,2.145,0,0,0-2.425-2.223h-4.379V.437h4.446Zm.606,10.037a2.493,2.493,0,0,0,2.695-2.627,2.456,2.456,0,0,0-2.695-2.627h-4.985v5.322h4.985Z"/><path d="M149.1-9.6h6.669V16.336H149.1Z" transform="translate(-11.129)"/><path d="M161,10.468C161,4.607,164.772.7,170.633.7s9.566,3.975,9.566,9.768c0,5.861-3.705,9.768-9.566,9.768S161,16.329,161,10.468Zm12.53,0c0-3.234-1.01-5.254-3.031-5.254s-2.964,2.021-2.964,5.254.943,5.322,2.964,5.322C172.519,15.722,173.53,13.7,173.53,10.468Z" transform="translate(-15.012 -3.361)"/><path d="M190.6,10.468C190.6,4.607,194.372.7,200.233.7s9.5,3.907,9.5,9.768-3.705,9.768-9.566,9.768C194.372,20.236,190.6,16.329,190.6,10.468Zm12.53,0c0-3.234-1.01-5.254-3.031-5.254s-2.964,2.021-2.964,5.254.943,5.322,2.964,5.322C202.119,15.722,203.13,13.7,203.13,10.468Z" transform="translate(-24.672 -3.361)"/><path d="M221,1.139h6.2V3.9h.135A5.872,5.872,0,0,1,232.924.6a5.116,5.116,0,0,1,4.985,3.166h.135A6.135,6.135,0,0,1,243.769.6c4.311,0,6.13,3.166,6.13,7.41V19.6h-6.467V9.155c0-1.886-.606-3.1-2.223-3.1s-2.425,1.482-2.425,3.5V19.6h-6.467V9.155c0-1.886-.606-3.1-2.223-3.1s-2.425,1.482-2.425,3.5V19.6H221Z" transform="translate(-34.593 -3.329)"/><path d="M272.965,13.843H272.9v2.425h-6.2V-9.6h6.467V-.3h.135A6.133,6.133,0,0,1,278.556-2.8c4.648,0,7.343,4.177,7.343,9.768,0,6.265-2.9,9.9-7.747,9.9A5.7,5.7,0,0,1,272.965,13.843ZM279.23,6.9c0-2.964-1.078-4.918-3.031-4.918-2.021,0-3.234,1.954-3.234,4.918s1.28,4.918,3.234,4.918S279.23,9.936,279.23,6.9Z" transform="translate(-49.507)"/><path d="M296.3,10.368C296.3,4.575,300.14.6,305.664.6a8.9,8.9,0,0,1,6.467,2.425c2.156,2.088,3.1,5.322,3.031,9.094h-12.4c.269,2.29,1.347,3.5,3.3,3.5a2.525,2.525,0,0,0,2.56-1.751h6.265c-1.078,4.244-4.379,6.332-9.027,6.332C300.14,20.136,296.3,16.229,296.3,10.368Zm6.467-1.954H308.7c-.135-2.223-1.347-3.368-2.9-3.368C303.98,4.979,302.969,6.259,302.767,8.414Z" transform="translate(-59.167 -3.329)"/><path d="M332.2,4.37h.135c1.347-2.56,3.1-3.57,5.322-3.57a2.01,2.01,0,0,1,1.078.2V6.661H338.6c-3.84-.674-6.063,1.145-6.063,5.322V19.73H326V1.2h6.2Z" transform="translate(-68.86 -3.394)"/><path d="M345.737,19.632H352a2.5,2.5,0,0,0,2.627,1.549c2.088,0,2.829-1.28,2.829-3.234V16.6h-.135a5.536,5.536,0,0,1-4.446,2.088c-3.975,0-7.478-2.964-7.478-8.757C345.4,4.609,348.229.5,352.541.5a5.449,5.449,0,0,1,4.985,2.56h.135V1.039h6.2V17.072a8.541,8.541,0,0,1-2.56,6.6,9.728,9.728,0,0,1-6.534,2.021C349.779,25.762,346.343,23.741,345.737,19.632Zm11.991-9.97c0-2.29-1.078-4.177-2.964-4.177-1.819,0-2.964,1.617-2.964,4.177,0,2.493,1.145,4.244,2.964,4.244S357.728,12.087,357.728,9.662Z" transform="translate(-75.191 -3.296)"/></g></svg>