<svg xmlns="http://www.w3.org/2000/svg" width="122.267" height="32" viewBox="0 0 122.267 32"><path d="M11.778,2.953h2.678a9.019,9.019,0,0,1,4.815.611,8.526,8.526,0,0,1,3.852,5.144c.4,1.127.4,1.127,1.362.728h.752V.51H.034V2.084H1.068a3.006,3.006,0,0,1,2.349,1.1c.963,1.55,1.127,3.288,1.127,12.331,0,9.607-.211,11.955-1.127,13.153a2.537,2.537,0,0,1-1.949,1.033c-1.433.258-1.433.235-1.433.869a.94.94,0,0,0,0,.658h15.9a1.48,1.48,0,0,0,0-1.339,8.1,8.1,0,0,0-1.174-.235,7.845,7.845,0,0,1-1.268-.258,4.228,4.228,0,0,1-1.715-3.829,54.617,54.617,0,0,1-.352-6.741V16.975h.94a12.683,12.683,0,0,1,3.476.376,4.345,4.345,0,0,1,2.02,3.1l.211.728h1.433V10.774H18.19l-.211,1.01a4.181,4.181,0,0,1-2.137,3.1A3.922,3.922,0,0,1,14.127,15h-2.7V12.466c0-2.631.141-8.174.235-9.043ZM121.7,21.579a8.526,8.526,0,0,0-4.862-3.688,11.744,11.744,0,0,1-4.2-2.349,2.349,2.349,0,0,1-.681-2.09,2.8,2.8,0,0,1,.822-1.973,2.842,2.842,0,0,1,2.819-.775,5.919,5.919,0,0,1,4.157,4.416c.376,1.057.423,1.057,1.1.775l.423-.164V9.882l-.305-.141a18.156,18.156,0,0,0-7.211-.986,8.456,8.456,0,0,0-5.637,2.349,6.483,6.483,0,0,0-2.043,5.073,5.567,5.567,0,0,0,1.6,3.852,9.536,9.536,0,0,0,3.993,2.349c3.641,1.433,4.7,2.349,4.7,4.016a3.1,3.1,0,0,1-2.349,3.077,5.8,5.8,0,0,1-2.49,0,7.234,7.234,0,0,1-4.392-4.956l-.305-.752h-.423a1.879,1.879,0,0,0-.587.141h-.235v6.671h.4a24.216,24.216,0,0,0,4.885,1.08h2.349a9.207,9.207,0,0,0,3.03-.282,7.3,7.3,0,0,0,5.543-4.7,5.449,5.449,0,0,0,.423-2.114,5.849,5.849,0,0,0-.517-2.983ZM99.576,9.436a10.828,10.828,0,0,0-8.855.211,10.311,10.311,0,0,0-5.379,6.412,12.543,12.543,0,0,0-.634,4.7,12.848,12.848,0,0,0,.211,2.584,10.429,10.429,0,0,0,8.432,8.409,16.442,16.442,0,0,0,4.11,0,11.274,11.274,0,0,0,3.993-1.527,7.046,7.046,0,0,0,2.49-2.349,1.174,1.174,0,0,0-.564-.728,3.03,3.03,0,0,0-.752.4,6.717,6.717,0,0,1-3.946,1.1,6.271,6.271,0,0,1-5-1.973,5.613,5.613,0,0,1-1.2-1.6,10.922,10.922,0,0,1-1.151-4.7v-.916h13.012V19a11.533,11.533,0,0,0,0-1.409,9.4,9.4,0,0,0-4.768-8.15Zm-6.553,8.127H91.378V16.177c.54-3.547,1.879-5.661,3.523-5.661s2.349,2.09,2.654,5.919v1.08H96.146ZM59.247,8.66a4.932,4.932,0,0,0-2.349.493,7.868,7.868,0,0,0-3.641,3.641l-.305.564V8.66h-.117c-.282,0-8.972,1.738-9.254,1.856s-.188.141-.188.564,0,.493.188.517l.916.188a1.691,1.691,0,0,1,1.315.681c.587.775.7,2.137.7,7.939a45.355,45.355,0,0,1-.329,7.821,1.926,1.926,0,0,1-1.621,1.527l-.8.164h-.305v.658a.94.94,0,0,0,0,.681h13.13v-.681a1.715,1.715,0,0,0,0-.681,13.13,13.13,0,0,1-2.349-.305A2.349,2.349,0,0,1,53,27.239a81.808,81.808,0,0,1-.235-8.409c.047-3.053,0-3.241.258-3.453a4.228,4.228,0,0,1,2.748-.869,6.13,6.13,0,0,1,2.678.681,3.523,3.523,0,0,0,.916.352S61.713,9.858,61.713,9.6a2.772,2.772,0,0,0-2.466-.94ZM43.416,18.525a10.546,10.546,0,0,0-4.838-8.362,12.214,12.214,0,0,0-10.992-.305,10.617,10.617,0,0,0-5.144,6.107,15.69,15.69,0,0,0,0,9.019,9.841,9.841,0,0,0,2.513,4.251,9.536,9.536,0,0,0,5.426,2.631,23.675,23.675,0,0,0,3.946,0,12.424,12.424,0,0,0,1.433-.305,10.452,10.452,0,0,0,7.493-8.338A20.529,20.529,0,0,0,43.416,18.525ZM33.645,30.269c-2.349.7-4.11-1.574-4.7-6.365a44.016,44.016,0,0,1,0-7.54c.47-3.852,1.668-5.8,3.523-5.8a2.349,2.349,0,0,1,1.973.869c1.574,1.574,2.349,4.7,2.349,9.4a17.4,17.4,0,0,1-1.221,7.8,3.57,3.57,0,0,1-1.926,1.527v.117ZM75.923,9.13a7.821,7.821,0,0,0-2,0,8.878,8.878,0,0,0-3.688.8l-.728.305v-5.1a35.021,35.021,0,0,0,0-5.167c-.282,0-9.254,1.715-9.4,1.785a.728.728,0,0,0,0,.54c0,.493,0,.47,1.057.7a3.03,3.03,0,0,1,.846.329,2.889,2.889,0,0,1,.869,1.621,26.893,26.893,0,0,1,.258,5.4V30.974l.634.141c.94.211,3.594.658,4.463.752a32.883,32.883,0,0,0,5.214,0,10.64,10.64,0,0,0,8.784-6.6,16.183,16.183,0,0,0,.893-3.57,21.139,21.139,0,0,0-.164-4.956,9.043,9.043,0,0,0-7.046-7.61h0ZM69.77,29.87c0-.305-.235-10.593-.188-14.7V11.949l.681-.164a4.886,4.886,0,0,1,1.386,0,2.349,2.349,0,0,1,1.456.329,7.046,7.046,0,0,1,3.03,5.355,25.837,25.837,0,0,1,0,5.144,11.3,11.3,0,0,1-2.725,6.741,3.265,3.265,0,0,1-1.668.846,4.181,4.181,0,0,1-1.433,0c-.446,0-.446-.141-.446-.329h0Z" transform="translate(0.025 0.03)" fill="#33629a"/></svg>