<svg xmlns="http://www.w3.org/2000/svg" width="121.076" height="32" viewBox="0 0 121.076 32"><path d="M31.742,31.73V0H22.819V4.958h3.964V26.752H22.819V31.73ZM8.935,4.958V0H0V31.73H8.935V26.752H4.962V4.958Zm0,0" fill="#1c385e"/><path d="M24.234,31.73l-.005-5.945-9.912-9.9V31.728ZM14.316,5.944l9.912,9.9V0H14.316Zm0,0" transform="translate(-3.397)" fill="#8291bd"/><path d="M64.242,36.976V22.09H60.28v9.465L55.7,22.09H50.425V36.976h3.962V27.49l4.559,9.486Zm8.19-7c-4.682.329-7.31,1.376-7.31,3.963,0,1.971,1.807,3.305,3.942,3.305a4.24,4.24,0,0,0,3.757-1.7v1.437H76.64a32.084,32.084,0,0,1-.205-3.347V32.54l.02-2.115c.062-3.7-2.2-4.886-5.379-4.886-3.613,0-5.523,2.012-5.687,4.086H68.92a1.638,1.638,0,0,1,1.868-1.416c.883,0,1.643.246,1.643,1.457Zm.144,2.382c0,1.7-.924,2.136-1.971,2.136-.966,0-1.355-.534-1.355-1.006,0-.965,1.129-1.314,3.326-1.458ZM78.69,25.93H76.473v2.587H78.69V33.65c0,3.039,1.027,3.326,4.086,3.326H85.61V34.2H83.6c-.554,0-.8-.123-.8-.76V28.517H85.61V25.93H82.8V22.891H78.69Zm7.779,11.046h4.107V25.93H86.469Zm0-11.97h4.107V22.09H86.469ZM97.286,28.66c1.047,0,1.847.718,1.847,2.771s-.8,2.752-1.847,2.752-1.848-.7-1.848-2.752.8-2.771,1.848-2.771m0,8.582c3.264,0,6.077-1.93,6.077-5.81,0-3.86-2.813-5.831-6.077-5.831-3.306,0-6.078,1.971-6.078,5.831,0,3.881,2.771,5.81,6.078,5.81M108.1,25.93H104V36.976H108.1v-5.79c0-1.622.657-2.218,1.663-2.218,1.211,0,1.334.986,1.334,1.91v6.1h4.107v-6.92c0-2.689-.923-4.373-3.675-4.373a3.833,3.833,0,0,0-3.429,1.684Zm15.376,4.044c-4.682.329-7.31,1.376-7.31,3.963,0,1.971,1.807,3.305,3.942,3.305a4.241,4.241,0,0,0,3.757-1.7v1.437h3.819a32.09,32.09,0,0,1-.205-3.347V32.54l.02-2.115c.062-3.7-2.2-4.886-5.379-4.886-3.613,0-5.523,2.012-5.687,4.086h3.531a1.638,1.638,0,0,1,1.868-1.416c.883,0,1.643.246,1.643,1.457Zm.144,2.382c0,1.7-.924,2.136-1.971,2.136-.966,0-1.355-.534-1.355-1.006,0-.965,1.129-1.314,3.326-1.458Zm9.42-10.266h-4.106V36.976h4.106Zm0,0" transform="translate(-11.967 -5.242)" fill="#1c385e"/><path d="M49.13,14.9h4.291V3.69h4.455V.015H44.694V3.69H49.13ZM62.657.015H58.551V14.9h4.107V9.131c0-1.621.657-2.217,1.662-2.217,1.212,0,1.335.985,1.335,1.909V14.9h4.107V7.982c0-2.69-.924-4.374-3.676-4.374a3.832,3.832,0,0,0-3.428,1.684ZM76.78,15.188a5.927,5.927,0,0,0,5.79-4H78.71a2.258,2.258,0,0,1-4.086-.862H82.59c.266-3.84-2.136-6.879-6-6.879a5.638,5.638,0,0,0-5.954,5.79c0,3.47,2.238,5.954,6.139,5.954m.081-8.931a1.954,1.954,0,0,1,2.095,1.787H74.685a2.144,2.144,0,0,1,2.176-1.787" transform="translate(-10.607 -0.004)" fill="#1c385e"/></svg>