<svg xmlns="http://www.w3.org/2000/svg" xmlns:xlink="http://www.w3.org/1999/xlink" width="444.025" height="32" viewBox="0 0 444.025 32"><defs><clipPath id="a"><path d="M586.68-904.1a15.77,15.77,0,0,0,15.77-15.769,15.771,15.771,0,0,0-15.77-15.77,15.77,15.77,0,0,0-15.77,15.77A15.77,15.77,0,0,0,586.68-904.1" transform="translate(-570.91 935.641)"/></clipPath></defs><g transform="translate(-10.327 724.345)"><g transform="translate(10.327 -724.345)"><g transform="translate(77.184 0)"><g transform="translate(0 0)" clip-path="url(#a)"><path d="M587.55-917.959l.233.047-.069.227.029.017.345-.406-.016-.029-.524.108Zm.039-.642.03.018.3-.326-.017-.03-.437.073v.035l.189.047-.065.184Zm-1,2.552h-.355l-.009.034.14.061-.073.133.026.023.282-.218-.011-.032Zm.753-.594-.443.015,0,.035.18.071-.088.173.028.022.341-.283Zm.359-.391.246.036-.058.24.032.015.332-.442-.018-.028-.537.145Zm-1.179,1.767-.007.034.141.061-.073.133.026.023.28-.218-.011-.032h-.356Zm2.216.03.239-.262-.017-.03-.35.061v.035l.148.035-.048.144.03.018Zm.175-2.243.407-.562-.019-.028-.667.193,0,.035.312.039-.068.307Zm-1.285,1.591h-.444l-.008.035.181.077-.1.17.028.023.352-.272-.011-.032Zm.814-3.04.305.082-.111.295.029.018.482-.5-.016-.03-.686.1Zm-.2,3.069.359-.423-.018-.029-.542.114v.035l.242.049-.072.237.032.017Zm1.111-4.276.026.022.282-.218-.011-.031H589.3l-.007.033.14.061Zm-.966.594.028.022.437-.34-.011-.032h-.555l-.008.035.229.1-.12.218Zm1.823,2.749v.035l.188.047-.065.182.029.018.3-.326-.015-.03-.439.073Zm1.322-3.126.029.023.281-.218-.011-.032h-.355l-.007.033.14.061Zm-3.54,4.72h-.356l0,.034.138.061-.073.132.027.024.281-.218Zm2.546-4.884.026.023.35-.272-.01-.031h-.445l-.007.033.178.078-.093.169Zm-.68,2.363.243.047-.069.237.032.016.352-.427-.018-.03-.541.123v.035Zm.341-3.161,1.805,0s.57.215,1.318.516a.77.77,0,0,1,.5.8s.3.3.461.484a.6.6,0,0,1,.064.747.7.7,0,0,1-.463.264l-.016-.034a.365.365,0,0,0-.035-.461c-.11-.158-.208-.187-.321-.119-.05.031-.113.078-.113.078l.28.447-.009.032a.681.681,0,0,1-.676-.17H591.6v.035l.773.141.023.053-2.655,3.123.025.023.9-.808v.705l-.083.213.084.494-.029.212s.821.7.827.7h0a.119.119,0,0,0,.022.011l.032.018.039.022.044.029a.462.462,0,0,1,.044.034.4.4,0,0,1,.043.04l.041.045c.011.016.026.032.036.048s.021.034.032.05.018.033.025.05a.333.333,0,0,1,.02.047.361.361,0,0,1,.016.042.123.123,0,0,1,.011.035c.006.021.01.032.01.032h.036a.112.112,0,0,0,.012-.032.125.125,0,0,0,.011-.039.236.236,0,0,0,.006-.056v-.031a.264.264,0,0,1,0-.034.544.544,0,0,0-.018-.071.509.509,0,0,0-.032-.072.378.378,0,0,0-.047-.067.361.361,0,0,0-.058-.057.335.335,0,0,0-.064-.044.317.317,0,0,0-.068-.028l-.025-.008.307-.069h0l.032.017a.219.219,0,0,1,.039.023.223.223,0,0,1,.042.028c.018.01.03.023.046.033s.03.026.042.04a.5.5,0,0,1,.042.045c.012.016.025.031.036.048l.03.05c.008.018.021.033.026.05l.022.048a.149.149,0,0,1,.013.042.208.208,0,0,1,.013.035c.006.021.01.033.01.033l.036,0a.286.286,0,0,0,.01-.033.11.11,0,0,0,.013-.039.331.331,0,0,0,0-.055v-.032a.255.255,0,0,1,0-.033c0-.023-.013-.046-.018-.071a.392.392,0,0,0-.033-.071.472.472,0,0,0-.045-.068.615.615,0,0,0-.058-.057.521.521,0,0,0-.066-.044.3.3,0,0,0-.064-.028c1.455-.314,2.581-.527,2.581-.527,1.47.869,1.377.816,1.682.985.56.312.536,1.227-.522,1.227a20.672,20.672,0,0,0-3.17.311l.793-.721-.025-.025a13.906,13.906,0,0,1-1.718,1.036h0c-.505.2-1.267.535-2.052.884l1.159-1.1-.027-.027a20.965,20.965,0,0,1-2.531,1.75c-.63.285-1.176.534-1.48.674a1.464,1.464,0,0,1-1.234.08c-.755-.268-1.049-.372-1.689-.617a.416.416,0,0,1,0-.792l.926-.3.4.176.628.275c.1.043.2.085.288.127l.068.03.034.013.016.008h0l.008,0a.643.643,0,0,1,.105.071.432.432,0,0,1,.124.176.4.4,0,0,1,.025.167.454.454,0,0,1-.02.112c-.008.025-.011.037-.011.037l.04.017s.006-.015.018-.04a.549.549,0,0,0,.03-.12.5.5,0,0,0-.014-.2.521.521,0,0,0-.132-.22.717.717,0,0,0-.112-.091l-.01,0,0,0-.007,0-.016-.009-.03-.018-.065-.037c-.087-.05-.18-.1-.275-.155-.189-.11-.39-.225-.594-.341L584.1-911.4l0,0s1.567-.493,3.568-1.043l.322.141.011-.021.006-.008-.189-.151-.5-.4-.245-.085-.163-.447-.222-.125-.218-1-.035.007.09,1.089-.622.349v-1.44l-.035-.006-.181,1.52-.838.163.286-1.652-.037-.008-.514,1.688-.821.056.595-1.762-.035-.016-.876,1.8h0l-.81.053.945-1.86-.03-.018-1.294,1.915-.862.134,1.4-2.064-.028-.022-2.357,2.739-.127-.085,2.112-3.311,3.233-1.209.343-.148c.062-.028.127-.054.2-.089.035-.016.066-.037.1-.056s.064-.041.1-.063a1.452,1.452,0,0,0,.174-.149l.04-.039.036-.042c.025-.027.046-.056.068-.084s.039-.059.059-.087l.05-.086.04-.084.035-.081c.019-.053.035-.1.047-.146s.019-.084.026-.115.008-.057.011-.074,0-.027,0-.027l-.037-.006s0,.009-.007.026-.008.042-.016.072a1.016,1.016,0,0,1-.035.107,1.353,1.353,0,0,1-.054.136c-.013.024-.025.049-.039.074s-.03.051-.045.077-.035.052-.054.077-.038.051-.06.076-.045.05-.069.073l-.039.035-.037.034a1.4,1.4,0,0,1-.17.122c-.03.018-.061.035-.091.05s-.062.031-.095.042c-.062.025-.13.049-.194.072l-.353.126c-.1.037-.188.067-.248.088l-.207-.419.419-.37-.02-.028-1.121.688-.263-.528,1.516-1.122-.026-.032-2.3,1.378-.211-.556,2.172-1.451-.018-.03-2.8,1.536-.133-.522,2.368-1.5-.018-.031-2.9,1.478-.084-.618h0l2.391-1.289-.015-.031-2.96,1.233-.013-.6,2.415-.943-.011-.037-2.932.8.035-.66,2.229-.512-.007-.034-2.852.39.091-.569,2.1-.225v-.037l-2.933.048.044-.481,2.337-.016,0-.035-4.2-.307-.007-.039.68-.237v-.033l-1.739-.663,0-.037.7-.056.006-.037-1.5-.927.01-.051,1.051.06.013-.033L575.4-925.2l.015-.035.57.109.017-.028-.569-.716-.352-1.014.035-.018.545.685,1.231.708.026-.025-.795-1.166-.3-1.3.035-.016.642.963,1.244,1.012.023-.026-.759-1.38-.262-1.685.042-.008.743,1.434,1.558,1.294.029-.024-1.073-1.723-.243-2.066.035-.011.669,1.832,2.209,1.989,2.788,1.426,3.056,4.249,1.191,1,.028-.028-.521-.679h0l1.227-.317,0-.037-1.064-.062,0-.036,1.562-.278,0-.035-1.949-.148v-.037l2.484-.417.988.233.011-.034-.943-.432-1.54.033,0-.037,1.645-.309,1.019.348.013-.033-.924-.587-1.094-.045v-.039l1.224-.19,1.072.5.019-.032-.883-.829-.962,0,0-.039,1.17-.262,1.039.854.025-.025-.8-1.167-.871-.163,0-.036,1.1-.067.993,1.207.029-.02-.712-1.5-.952-.311.007-.037,1.213.1.921,1.584.032-.015-.611-1.859-1.195-.427.008-.037,1.445.26.8,1.911.036-.009-.527-2.132-1.282-.726.018-.035,1.523.579.726,2.136.036-.008-.454-2.333-1.393-1.015.021-.032,1.622.889.635,2.248.037-.008-.4-2.407-1.459-1.294.023-.028,1.706,1.163.494,2.29.035-.006-.25-2.435-1.454-1.574.025-.029,1.686,1.442.372,2.219.037,0-.163-2.332-1.377-1.8.026-.024,1.621,1.7.255,1.92.036,0-.083-2.03-1.26-1.93.03-.023,1.457,1.847.194,1.378.037,0-.068-1.475-.9-2,.032-.018,1.112,1.894.1.777.035,0,.054-.885-.464-1.882.035-.013.638,1.58H596l.392-1.578.039.009-.129,1.552.035.01,1.08-1.553.03.018-.7,1.4.023.026,1.649-1.177.02.029-2.514,3.4s-.816,2.176-1.078,2.9a.485.485,0,0,1-.283.295l-2.04.815-.538.475-1.8.211Zm-2.76-13.685a15.455,15.455,0,0,0-15.455,15.455,15.455,15.455,0,0,0,15.455,15.455A15.456,15.456,0,0,0,602.9-919.109a15.456,15.456,0,0,0-15.456-15.455m2.274,15.813.3.063-.093.287.032.017.436-.5-.016-.029-.653.129Zm1.216,1.264.148.036-.052.143.03.018.24-.261-.015-.03-.35.059Zm-2.349,4.875a.365.365,0,0,1,.044.027c.015.008.028.023.045.033s.03.025.043.039a.041.041,0,0,1,.011.011c.011.009.021.021.031.032s.026.032.036.048.022.033.033.049a.439.439,0,0,1,.026.05.253.253,0,0,1,.021.046.237.237,0,0,1,.017.042.185.185,0,0,1,.013.035c.006.021.011.033.011.033h.036a.213.213,0,0,0,.012-.032.122.122,0,0,0,.009-.039.242.242,0,0,0,0-.056.214.214,0,0,1,0-.031.134.134,0,0,0,0-.033.487.487,0,0,0-.018-.071.5.5,0,0,0-.035-.071.3.3,0,0,0-.029-.043l-.018-.022a.628.628,0,0,0-.059-.056.482.482,0,0,0-.067-.043.385.385,0,0,0-.068-.027l-.033-.011-.018,0h-.013a.2.2,0,0,0-.054,0,.231.231,0,0,0-.042,0l-.033.007,0,.033v0a.272.272,0,0,0,.03.015l.032.016c.012.006.026.013.039.022m1.4.563-.127.037c-.083.025-.182.052-.291.085q-.13.038-.278.085l-.153.045-.156.053-.666.231c-.144.051-.288.106-.427.159l-.235.089c-.071.026-.138.053-.206.08l-.1.038-.213.086-.057.023-.287.121-.112.049-.153.065-.01,0,.023.054.011,0,.155-.054.116-.042c.084-.03.182-.064.294-.105l.081-.031c.061-.023.124-.047.191-.069l.1-.034.21-.075c.076-.028.151-.057.232-.085.139-.052.283-.105.429-.155l.663-.237c.1-.035.2-.073.3-.107l.207-.071.068-.023c.109-.037.207-.071.287-.1l.123-.042.165-.061-.016-.057-.171.047Zm-3,.521.126-.042q.249-.079.483-.161l.177-.06.047-.016.2-.067c.084-.028.158-.053.219-.075l.078-.027.114-.042.012,0-.018-.055-.011,0-.116.027-.059.015c-.068.016-.152.035-.248.061l-.2.054c-.049.013-.1.03-.155.047l-.069.021q-.215.067-.488.156c-.134.044-.263.091-.389.136l-.094.033-.047.017c-.136.049-.262.1-.37.139-.049.018-.094.036-.132.053L586-911.3l-.129.052-.11.045-.011.006.021.054.126-.038c.025-.008.054-.016.086-.027l.093-.028.122-.038c.076-.026.162-.052.252-.081l.172-.054.359-.117m2.52-4.45v.035l.189.047-.064.184.029.018.3-.326-.015-.03-.439.074Zm-.32-.451.386-.575-.02-.026-.658.216,0,.035.313.028-.057.309.032.013Zm2.055-2.085-.442.039,0,.034.185.062-.077.177.026.02.327-.3-.015-.032Zm-2.062,4.937-.912-1.117-.048.021.234,1.329.48.557.025.012c.009,0,.022.01.034.017s.026.013.039.021a.513.513,0,0,1,.046.028c.015.008.029.022.045.033s.029.024.043.039.028.029.041.044a.389.389,0,0,1,.036.047.357.357,0,0,1,.033.049.445.445,0,0,1,.026.049.4.4,0,0,1,.022.048c.007.015.011.028.017.04a.207.207,0,0,1,.011.035c.007.02.013.032.013.032h.035s0-.012.012-.032a.18.18,0,0,0,.01-.041.222.222,0,0,0,0-.055v-.031a.269.269,0,0,1-.006-.033.549.549,0,0,0-.019-.071.42.42,0,0,0-.035-.071.349.349,0,0,0-.047-.066.384.384,0,0,0-.059-.055.481.481,0,0,0-.064-.044c-.025-.01-.046-.021-.068-.028l-.033-.009h0l.036-.01.268-.068.012.006a.137.137,0,0,1,.033.016l.039.021a.287.287,0,0,1,.044.028.422.422,0,0,1,.046.033.563.563,0,0,1,.044.039c.017.013.028.029.043.043s.025.031.036.047.022.034.032.049a.307.307,0,0,1,.026.05.242.242,0,0,1,.022.046.181.181,0,0,1,.016.041.257.257,0,0,1,.014.035.138.138,0,0,0,.01.033h.035a.28.28,0,0,0,.013-.032.132.132,0,0,0,.009-.04.176.176,0,0,0,0-.055v-.032l0-.032a.339.339,0,0,0-.02-.071.3.3,0,0,0-.034-.071.43.43,0,0,0-.047-.067.421.421,0,0,0-.061-.054.338.338,0,0,0-.065-.044.468.468,0,0,0-.069-.027l-.013,0c.25-.064.5-.124.754-.184l-.816-.454-.32.007Zm1.526-5.912.228.1-.12.217.028.023.439-.34-.014-.032h-.553l-.007.035Zm-8.037-5.059-1.036.529-.057-.307-.049.005-.006.509.042.019,1.133-.715Zm.993,1.25-1.449.786-.057-.307-.047.006-.008.509.04.022,1.547-.974-.026-.042Zm-.474-.641-1.372.725-.055-.307-.047.007-.007.509.037.018,1.468-.911Zm2.142,2.5-1.035.529-.057-.3-.047.006-.007.5.036.02,1.134-.714Zm-.563-.616-1.25.649-.056-.307-.048.007-.007.506.036.023,1.351-.839Zm-.559-.6-1.42.741-.057-.307-.048,0-.006.51.04.02,1.515-.928-.025-.041Zm-3.363-.784.015-.058-3.188-.874-1.435-1.169-.04.039,1.329,1.347Zm.09-.649.021-.058-2.7-.872-1.334-1.254-.039.043,1.2,1.414,2.855.727Zm8.628,4.371.227.1-.121.216.026.023.439-.338-.01-.033-.555,0-.007.035Zm-11.891-3.074,1.174.343,2.325.213.007-.063-3.494-.55Zm.3-4.008-.043.034.976,1.344,2.36.783.023-.056-2.187-.9Zm7.827,6.01-.741.353-.058-.28-.047,0-.007.485.042.018.837-.538-.026-.04Zm-4.913-2.13-4.416-.911-.017.057,1.145.42,3.275.5.013-.063Zm1.3-2.026.028-.056-2.043-.981-1.243-1.655-.045.032,1.111,1.812,2.193.848Zm8.629,12.694.059-.008.041-.007.113-.018c.073-.013.145-.028.217-.043s.138-.03.21-.047l.042-.01c.081-.017.165-.035.239-.054s.156-.039.214-.056c.042-.01.077-.022.107-.03l.043-.013.057-.019.01,0-.011-.054h-.011l-.059.006-.044.005-.112.015c-.064.009-.137.021-.218.035l-.248.05c-.152.037-.319.083-.459.126-.042.013-.081.027-.113.037l-.035.011-.057.021-.01,0,.013.055h.011Zm1.871-.83s.028,0,.075-.009l.052-.006c.039,0,.088-.01.143-.019.179-.026.4-.062.595-.1l.051-.01c.09-.018.18-.035.264-.055l.124-.025.152-.032.141-.033.052-.013.072-.018.011,0-.009-.056h-.011s-.028,0-.075.007l-.047.005c-.042,0-.094.01-.152.017l-.015,0c-.079.011-.169.021-.262.037s-.206.037-.31.056h-.009c-.193.037-.408.082-.589.124l-.136.034c-.019.006-.04.011-.057.015l-.072.02-.012,0,.012.057h.011Zm-1.607-.171.038.022a.374.374,0,0,1,.043.029c.015.009.029.023.045.034a.1.1,0,0,0,.024.02l.021.019c.013.014.026.03.04.044s.025.032.035.049.021.032.03.049.02.033.026.05a.391.391,0,0,1,.02.047c.006.016.011.029.016.041a.23.23,0,0,1,.011.036.248.248,0,0,1,.009.033h.037l.011-.032a.144.144,0,0,0,.01-.04.318.318,0,0,0,.006-.055v-.032a.311.311,0,0,0-.006-.033.272.272,0,0,0-.016-.071.388.388,0,0,0-.032-.071.522.522,0,0,0-.047-.068l-.011-.012a.387.387,0,0,0-.047-.044.657.657,0,0,0-.064-.045.6.6,0,0,0-.071-.028c-.011,0-.019-.007-.03-.009l-.026,0s0,0-.006,0a.2.2,0,0,0-.052,0,.188.188,0,0,0-.042,0l-.035.007,0,.028v.008l.029.015c.009,0,.019.01.033.017m1.708-5.362c0,.011,0,.021.006.03a.272.272,0,0,0,.01.028c.006.008.01.016.014.023s.008.013.011.019l.014.014a.274.274,0,0,0,.026.025l.022-.017s0-.012-.006-.03a.048.048,0,0,0,0-.014v-.018a.121.121,0,0,1,0-.039.148.148,0,0,1,.008-.042.109.109,0,0,1,.008-.021.094.094,0,0,0,.011-.021.153.153,0,0,1,.025-.035.057.057,0,0,1,.016-.016l.013-.012.006-.005h0a.289.289,0,0,1,.04-.022.219.219,0,0,1,.047-.012c.006,0,.014,0,.023,0a.072.072,0,0,1,.022,0h.022l.019,0,.036.009.016.006.013.009.028.015.029-.023s0-.012-.012-.031a.043.043,0,0,0-.009-.015l-.014-.018c-.006-.006-.012-.014-.019-.021a.08.08,0,0,0-.025-.019c-.008-.005-.016-.012-.026-.018s-.022-.009-.033-.013a.16.16,0,0,0-.035-.01l-.04-.005a.3.3,0,0,0-.085.011.367.367,0,0,0-.078.038l-.007.005,0,0,0,0-.006.006-.013.012a.306.306,0,0,0-.029.032.339.339,0,0,0-.04.077.32.32,0,0,0-.009.076c0,.013,0,.024,0,.035m.062-1.035,0,.012,0,.011.011.025a.218.218,0,0,0,.032.05.106.106,0,0,0,.021.023.144.144,0,0,1,.02.018c.014.01.027.017.039.024l.013.006a.27.27,0,0,0,.1.021h.02a.213.213,0,0,0,.051-.008l.025-.009.007,0,.012-.006.007,0a.271.271,0,0,0,.075-.067.186.186,0,0,0,.037-.081l0-.01a.177.177,0,0,0,0-.028c0-.011,0-.022,0-.033a.117.117,0,0,0-.009-.041l0-.011a.268.268,0,0,0-.023-.039l-.006-.009-.043.016v.008a.185.185,0,0,0,0,.032.04.04,0,0,1,0,.013c0,.007,0,.015,0,.023a.084.084,0,0,0-.008.018l-.007.012-.006.009s0,.005-.007.008a.091.091,0,0,0,0,.009.144.144,0,0,1-.017.014.035.035,0,0,1-.013.008l-.007,0v0l-.018.007a.172.172,0,0,1-.042.005.1.1,0,0,1-.04-.009l-.012-.006-.007,0-.013-.01,0,0s0-.007-.007-.009-.006,0-.008-.01l-.011-.017v0h0a.1.1,0,0,1-.009-.023.077.077,0,0,1,0-.018v-.021s0-.006,0-.011a.013.013,0,0,1,0-.01.026.026,0,0,0,0-.011.062.062,0,0,1,0-.009l.007-.018a.077.077,0,0,0,.01-.014.023.023,0,0,0,.006-.009c.02-.017.03-.027.03-.027l.005-.007-.025-.05-.009,0a.321.321,0,0,0-.042.009l-.011,0a.185.185,0,0,0-.038.023.152.152,0,0,0-.025.023.051.051,0,0,0-.017.018l-.009.011a.2.2,0,0,0-.034.081.15.15,0,0,0,0,.049.128.128,0,0,0,0,.047Zm1.257.79a.177.177,0,0,1,.018.023c.007.008.011.016.018.025a.5.5,0,0,1,.028.053.326.326,0,0,1,.019.057.218.218,0,0,1,.01.061.206.206,0,0,1,0,.03.1.1,0,0,1,0,.03.389.389,0,0,1-.011.06l-.011.028-.013.03.029.017.018-.028a.168.168,0,0,0,.015-.033.448.448,0,0,0,.022-.067l0-.035a.278.278,0,0,0,0-.035.4.4,0,0,0-.006-.071.239.239,0,0,0-.015-.069.333.333,0,0,0-.025-.067.2.2,0,0,0-.018-.031.313.313,0,0,0-.018-.03.51.51,0,0,0-.046-.057l0,0c-.143-.135-.287-.268-.43-.406l-.1.122c.16.116.318.237.475.353l.04.04m-7.678-.027-.016-.114-.045,0-.049.295.039.024.549-.384-.026-.04Zm-.207-1.3-.526.23-.047-.213H585.6l-.021.406.037.02.625-.406Zm.329,1.906-.01-.111-.047,0-.049.295.035.026.4-.291-.025-.039Zm.258-1.443-.64.282-.023-.18-.042,0-.045.37.037.027.737-.454Zm7.2,6.76-.223.034c-.076.011-.151.025-.216.038-.042.006-.083.015-.122.023l-.08.015-.083.016-.1.02-.189.039-.081.017-.113.026.011.057.114-.013.083-.01.191-.024.18-.026.05-.006c.049-.006.1-.014.153-.023.086-.014.174-.025.266-.038l.172-.025.175-.025.048-.008.214-.034c.1-.013.186-.028.268-.041l.117-.019c.064-.01.121-.021.172-.03s.069-.013.1-.017l.114-.021-.009-.058h-.011l-.1.006-.035,0c-.065,0-.145.01-.242.021l-.129.013c-.082.008-.166.016-.257.028l-.215.029-.225.032m-9.478-2.512-.007.034.14.06-.075.132.027.023.282-.217-.011-.033Zm.671,5.7-.5-.222.488-.255-.013-.034-.736.205a.089.089,0,0,0-.064.062.1.1,0,0,0,.06.121h.01l.715.23c.12.037.239.079.358.12l.36.123.011-.033-.341-.161c-.116-.053-.23-.107-.345-.157m.327-5.7-.006.034.138.06-.074.132.026.023.282-.217-.011-.033h-.356Z" transform="translate(-571.327 935.224)" fill="#e41c29"/></g></g><path d="M-153.711-712.544h-1.853c-3.964,0-5.393,1.808-6.91,5.6l-1.432,3.582h-.423v-9.6h26.119v9.6h-.42l-1.429-3.582c-1.516-3.792-2.91-5.6-6.91-5.6h-1.856v24.308c0,1.9.592,3.708,3.5,4.171l1.051.168v.423h-13.987v-.423l1.057-.168c2.9-.462,3.5-2.273,3.5-4.171v-24.308Zm24.479-.42v12.681c.8-1.348,3.2-3.964,6.528-3.964,3.285,0,6.738,1.814,6.738,7.543v10.24a2.2,2.2,0,0,0,1.817,2.357l.8.21v.423h-9.861v-.423l.8-.21a2.2,2.2,0,0,0,1.811-2.357v-9.819c0-3.874-2.237-5.267-4.426-5.267a7.187,7.187,0,0,0-4.21,1.73v13.357a2.2,2.2,0,0,0,1.811,2.357l.8.21v.423h-9.858v-.423l.8-.21a2.2,2.2,0,0,0,1.811-2.357v-23.512a2.193,2.193,0,0,0-1.811-2.354l-.8-.213v-.42Zm26.92,8.717c5.306,0,8.3,3.543,8.3,7.714v.207h-13.273c-.042.465-.042.97-.042,1.141,0,5.432,2.907,9.351,7.5,9.351a6.41,6.41,0,0,0,5.774-3.624l.375.171a8.99,8.99,0,0,1-8.633,6.441c-5.988,0-9.606-4.5-9.606-10.78,0-5.564,3.618-10.621,9.606-10.621m-4.973,7.459h8.552v-1.345c0-2.823-.8-5.645-3.624-5.645-3.033,0-4.423,2.778-4.928,6.991" transform="translate(164.329 713.668)" fill="#110f0d"/><path d="M26.084-687.049c0,1.971.613,3.678,3.632,4.29l1.094.22v.22H16.279v-.22l1.094-.22c3.021-.611,3.635-2.318,3.635-4.29v-21.139c0-1.971-.613-3.719-3.635-4.333l-1.094-.22v-.216H30.81v.216l-1.094.22c-3.018.614-3.632,2.361-3.632,4.333ZM61.27-706.569v24.9h-.3L38.688-707.924l.133,16.192c.044,7.355,2.361,8.318,5.031,9.018l.7.174v.22H32.691v-.22l.7-.174c2.628-.657,5.036-1.708,5.036-9.018v-16.413l-.527-.567c-2.322-2.541-3.808-3.589-6.216-4.029v-.217H42.323c1.094,1.971,2.669,3.9,6.17,8.052L61.01-690.11l-.133-15.759c-.04-5.25-1.968-6.344-4.683-6.737l-1.008-.134v-.217H82.72c11.38,0,17.2,7.177,17.2,15.185s-5.821,15.452-17.2,15.452H67.4v-.22l1.047-.174c3.109-.526,3.68-2.321,3.68-4.336v-19.521c0-4.683-2.408-6.17-5.427-6.17s-5.431,1.487-5.431,6.17M81.8-682.539c8.141,0,12.43-5.778,12.43-15.1s-4.683-15.1-12.824-15.1H77.2v25.652c0,2.534.571,4.549,3.637,4.549Zm34.358,0c4.9,0,7.485-1.4,9.587-4.99l2.055-3.456h.219v8.665H100.97v-.22l1.094-.174c3.018-.483,3.633-2.364,3.633-4.336v-21.269c0-2.058-.615-3.589-3.633-4.2l-1.094-.22v-.217h25.868v8.665h-.22l-2.057-3.719c-2.057-3.765-4.9-4.729-10.2-4.729h-3.589v14.488l2.188-.043c4.686-.086,6.26-.307,7.747-5.033l.483-1.535h.217v13.438h-.217l-.483-1.488c-1.531-4.769-3.019-4.946-7.747-5.032l-2.188-.044v11.03c0,2.624.963,4.419,4.072,4.419h1.313Zm28.666-30.418c6.871,0,11.688,3.765,11.688,9.148,0,5.427-4.817,9.189-11.688,9.189h-1.88v-.26h.087c4.989,0,7.921-3.459,7.921-8.929s-2.932-8.932-7.921-8.932h-1.574v25.254c0,3.285.831,4.025,4.419,4.772l.83.174v.22h-15.1v-.22l1.094-.22c3.019-.611,3.633-2.318,3.633-4.29v-21.182c0-1.966-.614-3.675-3.633-4.289l-1.094-.22v-.217h13.217Zm28.1,30.418c4.9,0,7.485-1.4,9.585-4.99l2.058-3.456h.217v8.665h-27.05v-.22l1.094-.174c3.022-.483,3.635-2.364,3.635-4.336v-21.269c0-2.058-.613-3.589-3.635-4.2l-1.094-.22v-.217H183.6v8.665h-.22l-2.057-3.719c-2.055-3.765-4.9-4.729-10.2-4.729h-3.589v14.488l2.188-.043c4.682-.086,6.257-.307,7.747-5.033l.48-1.535h.22v13.438h-.22l-.48-1.488c-1.535-4.769-3.022-4.946-7.747-5.032l-2.188-.044v11.03c0,2.624.96,4.419,4.07,4.419h1.313ZM216.6-706.569v24.9h-.3l-22.28-26.259.133,16.192c.041,7.355,2.362,8.318,5.033,9.018l.7.174v.22H188.023v-.22l.7-.174c2.628-.657,5.033-1.708,5.033-9.018v-16.413l-.524-.567c-2.321-2.541-3.808-3.589-6.217-4.029v-.217h10.636c1.094,1.971,2.673,3.9,6.17,8.052l12.521,14.794-.133-15.759c-.043-5.25-1.968-6.344-4.683-6.737l-1.007-.134v-.217h27.532c11.377,0,17.2,7.177,17.2,15.185s-5.823,15.452-17.2,15.452H222.734v-.22l1.05-.174c3.107-.526,3.675-2.321,3.675-4.336v-19.521c0-4.683-2.408-6.17-5.426-6.17s-5.429,1.487-5.429,6.17m20.528,24.031c8.142,0,12.43-5.778,12.43-15.1s-4.684-15.1-12.824-15.1h-4.2v25.652c0,2.534.57,4.549,3.632,4.549Zm34.36,0c4.9,0,7.485-1.4,9.582-4.99l2.062-3.456h.217v8.665H256.3v-.22l1.094-.174c3.021-.483,3.632-2.364,3.632-4.336v-21.269c0-2.058-.611-3.589-3.632-4.2l-1.094-.22v-.217h25.866v8.665h-.217l-2.057-3.719c-2.058-3.765-4.9-4.729-10.2-4.729h-3.589v14.488l2.189-.043c4.682-.086,6.257-.307,7.743-5.033l.484-1.535h.217v13.438h-.217l-.484-1.488c-1.529-4.769-3.018-4.946-7.743-5.032l-2.189-.044v11.03c0,2.624.961,4.419,4.07,4.419h1.314Zm43.328-22.454c-.043-5.647-1.972-7.221-4.682-7.614l-1.008-.134v-.217H320.9v.217l-1.006.134c-2.712.393-4.684,1.967-4.684,7.614v23.327h-.3l-22.278-26.259.131,16.192c.042,7.355,2.364,8.318,5.031,9.018l.7.174v.22H286.633v-.22l.7-.174c2.625-.657,5.033-1.708,5.033-9.018v-16.413l-.527-.567c-2.318-2.541-3.805-3.589-6.214-4.029v-.217h10.637c1.093,1.971,2.671,3.9,6.174,8.052l12.514,14.794-.131-14.882ZM333.6-712.74h-1.928c-4.112,0-5.819,2.1-7.394,6.04l-1.49,3.722h-.217v-9.979H349.7v9.979h-.221L348-706.7c-1.575-3.939-3.239-6.04-7.4-6.04h-1.928v25.691c0,1.971.615,3.852,3.632,4.336l1.094.174v.22H328.868v-.22l1.094-.174c3.021-.483,3.635-2.364,3.635-4.336Z" transform="translate(94.322 713.665)" fill="#110f0d"/></g></g></svg>