<svg xmlns="http://www.w3.org/2000/svg" width="377.637" height="32" viewBox="0 0 377.637 32"><g transform="translate(-67.092 -701.441)"><path d="M442.715,729.046a2.157,2.157,0,1,0,2.014,2.152,2.066,2.066,0,0,0-2.014-2.152m-72.882,4.166h9.247v-.824l-1.006-.229c-.916-.229-1.329-.732-1.329-2.015V717.693H378.9c1.327,0,2.014.32,2.105,3.113l.229,5.859c.183,5.264,1.694,6.73,4.258,6.73,2.609,0,3.3-1.786,3.3-4.3v-1.053h-.962v.778c0,1.695-.228,2.885-.87,2.885-.594,0-.641-.458-.778-2.564l-.274-4.028c-.367-5.4-1.053-7.279-5.036-8.012A7.686,7.686,0,0,0,387,709.315c0-5.173-4.074-7.645-7.965-7.645H363.425v.824l.87.183c1.648.367,1.694,1.236,1.694,4.945v18.22c0,4.075-1.145,6.043-3.755,6.043-2.333,0-3.616-1.145-3.616-5.585V704.646c0-1.282.412-1.648,1.419-1.877l1.236-.275v-.824h-9.567v.824l1.006.275c.916.275,1.236.641,1.236,1.923v21.288c0,4.807,2.793,7.462,7.051,7.462s6.363-2.656,6.363-7.6V705.973c0-2.472.5-3.342,2.518-3.342,1.6,0,2.29.549,2.29,2.06v25.453c0,1.282-.412,1.74-1.328,1.969l-1.007.275v.824Zm61.436-28.521c0-1.281.413-1.693,1.327-1.877l1.236-.275v-.87h-9.522v.824l1.007.275c.916.275,1.327.641,1.327,1.923v25.637c0,1.236-.5,1.923-1.923,1.923-1.648,0-1.877-.549-2.471-3.25l-5.859-27.422H414.56l-5.584,26.552c-.642,2.975-.962,3.663-2.2,4.029l-.779.229v.824h6.547v-.824l-.961-.184c-1.374-.275-1.74-1.007-1.053-4.486l3.3-16.984,3.616,17.991c.549,2.609.5,3.113-1.465,3.479l-.961.184v.824h24.263V722.775h-.87c-.458,4.807-1.419,9.339-5.31,9.339H431.27V704.691ZM416.987,724.7v-1.236h-6.18l-.182,1.236Zm-25.545-19.456v21.883c0,3.3,0,4.853-1.648,5.128l-.824.137v.824H395.7v-.824c-2.93-.412-2.93-1.419-2.93-4.99V706.615l-1.1-1.007,11.216,27.6h1.922V707.759c0-3.754,0-4.578,1.832-5.082l.641-.183v-.824h-6.913v.824l.779.183c2.335.412,2.335,1.328,2.335,4.807v15.931l.458-.137-8.515-21.608h-6.547v.824l.641.183c.734.229,1.145,1.053,1.923,2.564m-14.7-2.472h1.832c1.831,0,3.525,1.19,3.525,7.142,0,6.089-1.281,6.684-3.845,6.684h-1.512Zm-30.488,14.375c0,13.23-1.1,15.107-3.48,15.107s-3.434-1.878-3.434-15.016c0-12.727,1.145-14.558,3.434-14.558,2.381,0,3.48,1.831,3.48,14.467m4.99.275c0-8.744-2.793-15.977-8.47-15.977-5.722,0-8.424,7.233-8.424,15.977,0,8.79,2.793,16.023,8.424,16.023,5.814,0,8.47-7.233,8.47-16.023m-19.594-12.727c0-1.281.32-1.693,1.235-1.923l1.007-.275v-.824H324.42v.824l1.144.275c.915.229,1.42.549,1.42,1.877v22.02c0,3.067-.275,5.539-2.564,5.539-1.465,0-2.564-1.145-2.518-1.968.136-1.42,2.518-1.327,2.7-3.617a2.11,2.11,0,0,0-1.877-2.471c-1.419-.184-3.158,1.007-3.205,3.387-.046,3.067,1.969,5.86,5.4,5.86,3.8,0,6.73-2.564,6.73-7.463V704.692Zm-152.905,0c0-1.281.412-1.693,1.327-1.877l1.236-.275v-.87H171.79v.824l1.007.275c.915.275,1.327.641,1.327,1.923v25.637c0,1.236-.5,1.923-1.923,1.923-1.648,0-1.923-.549-2.518-3.25l-5.86-27.422h-1.831l-5.585,26.552c-.641,2.975-.962,3.663-2.2,4.029l-.779.229v.824h6.547v-.824l-.962-.184c-1.373-.275-1.74-1.007-1.053-4.486l3.3-17.076,3.617,18.083c.5,2.609.5,3.113-1.465,3.479l-.962.184v.824H186.76V722.775h-.87c-.458,4.807-1.419,9.339-5.311,9.339h-1.831V704.692Zm127.45-1.923h1.008c2.839,0,3.8,4.532,4.12,9.339h.869V701.67H295.579v10.438h.87c.321-4.807,1.282-9.339,4.12-9.339h1.007v27.376c0,1.282-.412,1.74-1.327,1.969l-1.19.275v.824h9.889v-.824l-1.42-.32c-.87-.229-1.328-.5-1.328-1.924V702.769Zm-20.921,14.6,1.419.046c2.06.046,2.655.824,3.068,5.814h.869V710.506h-.869c-.5,3.983-1.054,5.676-3.022,5.723l-1.465.046V702.769h3.159c3.525,0,4.3,4.441,4.807,9.339h.87V701.67H278.32v.824l1.007.275c1.052.275,1.327.916,1.327,1.969v25.407c0,1.282-.411,1.74-1.327,1.969l-1.007.275v.824h16.251V722.775h-.87c-.549,4.761-1.145,9.339-5.264,9.339h-3.159V717.373Zm-17.259,0,1.419.046c2.06.046,2.655.824,3.067,5.814h.87V710.506h-.87c-.5,3.983-1.053,5.676-3.021,5.723l-1.465.046V702.769h3.159c3.525,0,4.3,4.532,4.807,9.339h.87V701.67H260.6v.824l1.465.275c1.053.275,1.327.916,1.327,1.969v25.407c0,1.282-.412,1.74-1.327,1.969l-1.007.275v.824h16.251V722.775h-.869c-.549,4.761-1.145,9.339-5.265,9.339h-3.159V717.373Zm-18.816-14.6h1.374c1.831,0,3.525,1.19,3.525,7.142,0,6-1.281,6.684-3.845,6.684H249.2Zm-6.913,30.443h9.248v-.824l-1.008-.229c-.915-.229-1.327-.732-1.327-2.015V717.693H250.9c1.327,0,2.014.549,2.106,3.113l.229,5.859c.184,5.264,1.694,6.73,4.258,6.73,2.609,0,3.3-1.786,3.3-4.3v-1.053h-.961v.778c0,1.695-.229,2.885-.87,2.885-.6,0-.641-.458-.778-2.564l-.275-4.028c-.366-5.54-1.1-7.279-5.035-8.012A7.687,7.687,0,0,0,259,709.315c0-5.173-4.074-7.645-7.965-7.645h-8.744v.824l1.007.275c.916.275,1.327.641,1.327,1.923v25.453c0,1.282-.411,1.74-1.327,1.969l-1.007.275v.824Zm-7-30.443h1.007c2.838,0,3.8,4.532,4.12,9.339h.869V701.67H224.666v10.438h.87c.32-4.807,1.282-9.339,4.12-9.339h1.007v27.376c0,1.282-.413,1.74-1.327,1.969l-1.191.275v.824H237.8v-.824l-1.19-.275a1.713,1.713,0,0,1-1.327-1.969Zm-10.575,22.249c0-9.385-10.3-11.857-10.3-18.678,0-1.465.549-3.663,2.838-3.663,3.3,0,4.533,4.258,5.082,9.431h.87V701.67h-.549c-.229,1.007-.641,1.465-1.236,1.465-1.053,0-1.6-1.648-4.12-1.648-3.891,0-6.547,3.251-6.547,7.508,0,7.737,10.3,10.987,10.3,18.129,0,3.25-1.511,5.081-3.571,5.081-3.067,0-5.081-3.616-5.631-9.43h-.87v10.438h.549c.458-1.51,1.053-1.648,1.556-1.648.87,0,1.786,1.831,4.441,1.831,4.075,0,7.187-3.525,7.187-8.378m-29.986-20.326c0-1.281.412-1.693,1.327-1.877l1.236-.275v-.87h-9.522v.824l1.007.275c.915.275,1.327.641,1.327,1.923v25.453c0,1.283-.412,1.74-1.327,1.969l-1.007.275v.824h14.97V722.775h-.87c-.457,4.807-1.419,9.339-5.31,9.339h-1.831V704.691ZM164.419,724.7v-1.236h-6.18l-.184,1.236Zm-26.46,8.607h1.877l4.257-22.523h-.641l4.669,22.523h1.648l5.585-26.552c.6-2.793.915-3.754,2.014-4.029l.87-.229v-.824h-6.455v.824l.962.183c1.373.275,1.693,1.1,1.053,4.486l-3.617,17.809h.549l-3.663-18.77c-.367-1.786-.6-3.251.916-3.525l1.007-.183v-.824h-8.835v.824l.6.137c.916.229,1.053.779,1.419,2.518l1.419,6.821-.275-4.12-3.159,16.664h.412L136.86,706.2c-.412-1.877-.549-3.3.915-3.571l.687-.137v-.824h-9.019v.824l.87.229c.824.229,1.282.641,1.831,3.159l5.814,27.422Zm-24.447-15.932,1.419.046c2.06.046,2.655.824,3.067,5.814h.87V710.506H118c-.5,3.983-1.053,5.676-3.021,5.723l-1.465.046V702.769h3.159c3.525,0,4.3,4.532,4.807,9.339h.87V701.67H106.554v.824l1.007.275c1.053.275,1.327.916,1.327,1.969v25.407c0,1.282-.412,1.74-1.327,1.969l-1.007.275v.824h16.252V722.775h-.87c-.549,4.761-1.144,9.339-5.264,9.339h-3.159V717.372Zm-28.8,15.84H94.1v-.824l-1.053-.229c-.824-.183-1.374-.732-1.374-2.015v-12.5h6.913v12.5c0,1.282-.549,1.832-1.373,2.015l-1.053.229v.824h9.385v-.824l-1.007-.275c-.915-.229-1.328-.733-1.328-2.014V704.691c0-1.281.413-1.693,1.328-1.923l1.007-.275v-.824H96.162v.824l1.053.275a1.633,1.633,0,0,1,1.373,1.877v11.766H91.675V704.646c0-1.282.5-1.648,1.374-1.877l1.053-.275v-.824H84.717v.824l1.007.275c.916.275,1.327.641,1.327,1.923v25.453c0,1.282-.412,1.74-1.327,1.969l-1.007.275v.824Zm-7-30.443H78.72c2.838,0,3.8,4.532,4.12,9.339h.87V701.67H67.092v10.438h.87c.32-4.807,1.282-9.339,4.12-9.339h1.007v27.376c0,1.283-.411,1.74-1.327,1.969l-1.19.275v.824H80.46v-.824l-1.419-.32c-.87-.229-1.328-.5-1.328-1.924V702.769Z" transform="translate(0 0)" fill="#1c1c21"/></g></svg>