<svg xmlns="http://www.w3.org/2000/svg" width="219.69" height="32" viewBox="0 0 219.69 32"><g transform="translate(-75.271 1.979)"><path d="M292.481,7.7h.281l-.609-8.981h-.374L290.516.548h-.046c-1.077-1.45-3.7-2.527-6.457-2.527-5.145,0-9.122,3.7-9.122,8.328,0,5.754,4.211,8.282,8.467,10.059,4.772,1.966,6.69,3.462,6.69,7.017,0,2.948-1.309,5.848-5.239,5.848-5.24,0-7.953-5.145-9.451-10.525h-.327l.327,10.338h.233l1.31-2.1h.187a11.265,11.265,0,0,0,7.72,3.04c5.1,0,10.152-3.321,10.152-9.31,0-6.69-3.93-7.953-8.8-10.292-3.322-1.591-6.457-2.621-6.457-7.017,0-2.948,1.872-4.633,4.352-4.633a6.392,6.392,0,0,1,5.286,2.48A17.349,17.349,0,0,1,292.481,7.7M284.4,12.75c6.927,3.028,8.123,7.158,8.123,7.158s-1.328-3.821-7.974-6.433A11.724,11.724,0,0,1,277.507,5.8l.013-.034c1.756,3.377,3.45,5.485,6.879,6.986m-6.888-13.84V-1.37h-8.935v.281c1.683.094,3.275.749,3.275,2.807a15.668,15.668,0,0,1-.8,3.93l-4.725,15.578h-.14L262.26,5.787a15.518,15.518,0,0,1-.749-3.976c0-2.012,2.012-2.713,3.555-2.9V-1.37H250.845v.233A5.136,5.136,0,0,1,254.12.735a14.339,14.339,0,0,1,1.824,4.211l-4.959,16.279h-.14l-3.93-15.391a13.894,13.894,0,0,1-.7-4.023c0-1.824,1.637-2.667,3.041-2.9V-1.37l-14.63-.006,1.686.519c.088.03.177.058.266.1,2.619.936,3.275,2.994,4.864,8.7L247.475,29.6h1.778l7.158-22.971,6.41,22.971H264.6l7.533-24.14a22.194,22.194,0,0,1,1.637-4.211,4.444,4.444,0,0,1,3.743-2.339M248.748,23.137l-.036.056-3.245-9.834L242.382,2.866l.091.061,3.477,10.348Zm15.236,0-.036.056L260.7,13.36,257.618,2.866l.091.061,3.477,10.348ZM237.324,7.7,236.31-.857a4.149,4.149,0,0,0-.984-.357l-.342-.156H214.962l-3.292.48c-.276.019,2.777-.2,2.553-.16a6.306,6.306,0,0,1,.834.195,3.1,3.1,0,0,1,2.2,2.105,30.609,30.609,0,0,1,.609,7.346V19.448a30.418,30.418,0,0,1-.609,7.3,3.1,3.1,0,0,1-2.2,2.105,8.3,8.3,0,0,1-1.4.281v.233h23.812l.749-9.824h-.233a19.569,19.569,0,0,1-3.836,6.971,6.21,6.21,0,0,1-5.007,2.105h-.982a5.247,5.247,0,0,1-3.181-.842c-1.731-1.31-1.637-4.631-1.637-6.643V13.788h1.683c2.667,0,3.79.562,4.585,1.263a8.2,8.2,0,0,1,2.153,4.631h.281V7.145h-.281a9.112,9.112,0,0,1-2.34,4.864c-.888.842-1.731,1.03-4.4,1.03h-1.683V6.677c0-2.059.046-5.24,1.871-6.551a4.1,4.1,0,0,1,2.667-.747h1.169A5.811,5.811,0,0,1,233.253,1.2a16.358,16.358,0,0,1,3.79,6.5Zm-16.263,7.011-.04,12.158-.064.049-.471-12.241.26-12.919.085.1ZM213.371-.856a6.89,6.89,0,0,1,.851-.195c-.21-.036,1.272-.3,1.114-.325l-1.685.006h-8.42v.233a6.641,6.641,0,0,1,1.5.281,3.335,3.335,0,0,1,2.105,1.966,14.815,14.815,0,0,1,.795,5.613V20.1h-.094L195.08-1.37h-9.871v.281a5.386,5.386,0,0,1,1.45.327,6.019,6.019,0,0,1,2.9,2.573,17.269,17.269,0,0,1,1.03,6.83V21.319a13.239,13.239,0,0,1-.888,5.569,3.257,3.257,0,0,1-1.966,1.964,7.92,7.92,0,0,1-1.637.281v.233h9.778v-.233a6.516,6.516,0,0,1-1.544-.281,3.391,3.391,0,0,1-2.059-1.964,13.659,13.659,0,0,1-.795-5.569V4.01h.141l17.823,25.684h1.077V6.723a14.845,14.845,0,0,1,.795-5.613,3.27,3.27,0,0,1,2.058-1.966m-5.338,23.923-.018.077-7.167-9.968-7.234-10.77.12.037,7.6,10.521ZM169.444,12.9v-.141a18.238,18.238,0,0,0,3.7-1.169c2.526-1.123,4.3-2.948,4.3-6.035,0-5.567-4.725-6.924-9.824-6.924H153.21v.233c.374.048,1.028.141,1.4.235a3.164,3.164,0,0,1,2.2,2.151,31.039,31.039,0,0,1,.562,7.346V19.448a30.834,30.834,0,0,1-.562,7.3,3.169,3.169,0,0,1-2.2,2.153l-.138.022c.379.1.51.267.851.3l.223.143H169.3c5.52,0,9.871-3.181,9.871-8.654,0-4.631-4.4-7.485-9.732-7.812m3.64,14.465c1.976-1.792,3.171-3.61,3.171-5.93a7.6,7.6,0,0,0-2.9-5.93h.03a6.966,6.966,0,0,1,3.517,5.93c0,2.451-1.561,4.493-3.787,5.93Zm-12.6-12.648-.192,12.158-.064.049-.319-12.241.108-12.919.085.1Zm11.562-4.181c1.778-1.452,2.854-2.925,2.854-4.8a5.948,5.948,0,0,0-2.61-4.8h.027a5.6,5.6,0,0,1,3.181,4.8c0,1.985-1.42,3.64-3.423,4.8Zm-5.459,2.035h-3.743V4.524a17.276,17.276,0,0,1,.187-3.181c.374-1.544,1.544-1.964,2.994-1.964h.609c3.7,0,5.613,1.918,5.613,6.175a9.555,9.555,0,0,1-1.263,5.053,5.324,5.324,0,0,1-4.4,1.964m5.147,2.48c1.31,1.356,1.683,3.7,1.683,5.661,0,2.667-.42,4.818-1.4,5.941a6.2,6.2,0,0,1-4.352,1.966h-.56c-1.918,0-3.229-.562-3.79-2.48a19.171,19.171,0,0,1-.468-4.913V13.32h4.165a6.587,6.587,0,0,1,4.725,1.731m-15.85,14.312-1.411-.441c-.14-.037-.27-.065-.422-.116a3.786,3.786,0,0,1-2.2-1.872,69.625,69.625,0,0,1-3.229-8.421L142.076-1.6h-1.4l-8.467,24.14a35.283,35.283,0,0,1-1.637,4.117,4.612,4.612,0,0,1-1.685,1.824c-.067.046-.14.076-.208.114-.529,0-.835.349-.389.383l2.189.391h5.38v-.281a7.185,7.185,0,0,1-1.824-.42,2.577,2.577,0,0,1-1.591-2.432,10.741,10.741,0,0,1,.749-3.6l1.45-4.3h8.094l1.169,3.884a16.269,16.269,0,0,1,.842,4.023,2.337,2.337,0,0,1-1.545,2.432,7.155,7.155,0,0,1-1.731.42v.281h11.743ZM138.941,6.115l3.509,11.461h-7.533L138.8,6.115ZM148.285,26.9l-.039.07-3.939-11.627L140.537,2.922l.1.071,4.2,12.237Zm-17.218,2.466c.624-.083-2.951-.456-2.392-.771a3.308,3.308,0,0,1-.587-.348c-1.028-.8-1.871-2.854-2.572-6.925-.562-3.087-1.685-4.864-3.135-5.894a8.744,8.744,0,0,0-3.836-1.31v-.14a10.712,10.712,0,0,0,4.257-1.263A7.07,7.07,0,0,0,126.451,6.4c0-5.053-4.537-7.766-10.666-7.766H101.609v.233a9.477,9.477,0,0,1,1.4.281,3.123,3.123,0,0,1,2.151,2.105,30.182,30.182,0,0,1,.609,7.3v10.9a28.139,28.139,0,0,1-.609,7.3,3.052,3.052,0,0,1-2.105,2.153c-.045.013-.1.022-.143.034a.5.5,0,0,0-.4.192l1.431.241h11.883v-.233A11.971,11.971,0,0,1,114.1,28.9a3.05,3.05,0,0,1-2.1-2.153,27.813,27.813,0,0,1-.655-7.3V14.3h1.825c2.292,0,3.7.187,4.725,1.45,1.263,1.637,1.685,4.352,1.964,7.346a12.269,12.269,0,0,0,2.2,6.268h4.818ZM108.629,14.716l-.117,12.158-.062.049-.4-12.241.183-12.919.085.1Zm11.726-2.2c1.857-1.709,2.98-3.444,2.98-5.655A7.288,7.288,0,0,0,120.609,1.2h.028a6.67,6.67,0,0,1,3.315,5.655c0,2.337-1.477,4.285-3.569,5.655Zm-6.582.9h-2.432V4.43c0-1.777.046-3.133.514-3.93a2.872,2.872,0,0,1,2.713-1.122h.281c4.211,0,5.427,2.946,5.427,7.111a9.851,9.851,0,0,1-1.217,5.145c-.936,1.264-2.058,1.778-5.286,1.778m10.886,14.146s-1.774-1.14-2.038-5.389c-.168-2.671-.66-3.759-2.636-5.387h.031a6.118,6.118,0,0,1,3.136,5.387c.184,4.016,1.507,5.389,1.507,5.389m-20.243,1.8c.38-.042-1.936-.318-1.5-.429-.152-.04-.3-.073-.465-.128a3.791,3.791,0,0,1-2.2-1.872,69.686,69.686,0,0,1-3.227-8.421L90.475-1.6h-1.4L80.6,22.536a35.009,35.009,0,0,1-1.637,4.117,4.6,4.6,0,0,1-1.683,1.824,4.364,4.364,0,0,1-2.012.608v.281h8.981v-.281a7.186,7.186,0,0,1-1.825-.42,2.578,2.578,0,0,1-1.59-2.432,10.7,10.7,0,0,1,.749-3.6l1.45-4.3H91.13L92.3,22.209a16.269,16.269,0,0,1,.842,4.023A2.336,2.336,0,0,1,91.6,28.664a7.155,7.155,0,0,1-1.731.42v.281h11.742ZM90.849,17.576H83.318L87.2,6.115h.141ZM97,26.9l-.04.07L93.027,15.339,89.257,2.922l.1.071,4.2,12.237Zm0,0" transform="translate(0 0)"/></g></svg>