<svg xmlns="http://www.w3.org/2000/svg" width="103" height="32" viewBox="0 0 103 32"><path d="M7.984,32h2.4V19.2h-2.4Zm8.783-.192h2.146V23.732L27.946,32V19.392h-2.14V27.33L16.767,19.2Zm16.078-3.1a6.594,6.594,0,0,0,4.073,1.436c1.464,0,2.491-.5,2.491-1.617,0-.97-.655-1.35-1.8-1.775l-1.857-.645c-1.712-.608-3.014-1.5-3.014-3.537,0-2.183,1.971-3.37,4.328-3.37a7.154,7.154,0,0,1,3.788,1.006v2.165a6.075,6.075,0,0,0-3.742-1.334c-1.294,0-2.261.483-2.261,1.49,0,.91.607,1.274,1.676,1.64l2.069.726c2.005.7,2.925,1.8,2.925,3.6,0,2.262-1.99,3.511-4.6,3.511a7.5,7.5,0,0,1-4.073-1.086V28.708ZM47.109,32h2.4V19.2h-2.4ZM60.74,30.063c2.7,0,4.143-1.732,4.143-4.466,0-2.754-1.444-4.48-4.143-4.48H58.07v8.946h2.67ZM55.89,19.2h4.93c3.795,0,6.249,2.5,6.249,6.4S64.615,32,60.82,32H55.89Zm23.157,0v1.917h-5.8V24.2h5.2v1.9h-5.2v3.971h5.8V32H71.062V19.2Zm8.5,5.8h2.377a1.973,1.973,0,1,0,0-3.919H87.549V25Zm0,1.81V32H85.434V19.2h4.532c2.584,0,4.256,1.331,4.256,3.837,0,2.143-.928,3.374-2.9,3.69L95.814,32H93.408l-4.354-5.193h-1.5ZM7.147,6.59A2.828,2.828,0,0,0,8.814,3.8c0-2.358-1.667-3.58-4.334-3.58H0V13.386H4.9c2.667,0,4.334-1.308,4.334-3.773A3.179,3.179,0,0,0,7.147,6.59ZM2.1,5.754v-3.6H4.46c1.48,0,2.271.536,2.271,1.779S5.939,5.754,4.46,5.754H2.1ZM2.1,7.6h2.75c1.46,0,2.251.728,2.251,1.929,0,1.179-.792,1.93-2.25,1.93H2.1V7.6Zm16.9,6c3.063,0,5.126-1.844,5.126-5.445V.223H21.964V7.9c0,2.53-1.042,3.71-2.959,3.71s-2.958-1.18-2.958-3.71V.223H13.88v7.91c0,3.623,2.083,5.467,5.125,5.467Zm10.228-1.158A7.147,7.147,0,0,0,33.3,13.6c2.6,0,4.584-1.33,4.584-3.73,0-1.908-.916-3.066-2.917-3.816L32.9,5.282c-1.063-.385-1.667-.771-1.667-1.736,0-1.072.958-1.586,2.25-1.586a5.832,5.832,0,0,1,3.73,1.415V1.08A6.766,6.766,0,0,0,33.442.009c-2.354,0-4.313,1.265-4.313,3.58,0,2.165,1.292,3.108,3,3.751l1.855.686c1.146.45,1.792.858,1.792,1.887,0,1.179-1.021,1.715-2.48,1.715a6.346,6.346,0,0,1-4.063-1.522v2.336ZM45.623.223H43.457V13.385h2.166Zm6.182,13.146h2.088V4.806l8.788,8.767V.2H60.6V8.62L51.805,0V13.369ZM76.222.226V2.2H70.6V5.365h5.045V7.314H70.6V11.4h5.626v1.992h-7.75V.226Zm5.045,12.207a7.145,7.145,0,0,0,4.063,1.158c2.6,0,4.584-1.329,4.584-3.73C89.914,7.953,89,6.8,87,6.045l-2.063-.771c-1.063-.386-1.667-.772-1.667-1.737,0-1.072.958-1.586,2.25-1.586a5.837,5.837,0,0,1,3.73,1.415V1.072A6.758,6.758,0,0,0,85.475,0c-2.354,0-4.313,1.265-4.313,3.58,0,2.165,1.292,3.108,3,3.751l1.855.686c1.146.45,1.792.858,1.792,1.887,0,1.179-1.02,1.715-2.48,1.715A6.335,6.335,0,0,1,81.267,10.1v2.336Zm13.086,0a7.147,7.147,0,0,0,4.063,1.158c2.605,0,4.584-1.329,4.584-3.73,0-1.908-.917-3.065-2.917-3.816L98.02,5.274c-1.062-.386-1.667-.772-1.667-1.737,0-1.072.959-1.586,2.25-1.586a5.835,5.835,0,0,1,3.73,1.415V1.072A6.752,6.752,0,0,0,98.562,0c-2.355,0-4.313,1.265-4.313,3.58,0,2.165,1.292,3.108,3,3.751l1.855.686c1.146.45,1.792.858,1.792,1.887,0,1.179-1.021,1.715-2.48,1.715A6.34,6.34,0,0,1,94.353,10.1v2.336Z" fill="#111" fill-rule="evenodd"/></svg>