<svg xmlns="http://www.w3.org/2000/svg" width="67.268" height="32" viewBox="0 0 67.268 32"><path d="M28.173,0a5.64,5.64,0,0,0-5.632,5.858v15.72a1.037,1.037,0,0,1-1.035,1.068H16.593C5.96,22.66,6.91,9.053,15.961,9.041c4.024-.006,5.43,0,5.43,0V5.229H15.768A10.388,10.388,0,0,0,7.782,8.576a10.979,10.979,0,0,0-2.712,7.312,10.765,10.765,0,0,0,2.687,7.2,10.875,10.875,0,0,0,8.393,3.376h9.275a1,1,0,0,0,.991-.984V6.274A2.054,2.054,0,0,1,27.769,4.2h0a2.011,2.011,0,0,1,2.243.843l0,0,0,0c1.3,2.136,4.56,7.375,7.5,12.1,1.471,2.361,2.863,4.594,3.893,6.245l1.238,1.985.479.768a.67.67,0,0,0,.717.35h0a.514.514,0,0,0,.306-.281,1.361,1.361,0,0,0,.121-.607V6.277A2.053,2.053,0,0,1,45.63,4.2a2,2,0,0,1,2.235.844l0,0,0,0c1.306,2.134,4.565,7.374,7.507,12.1s5.57,8.931,5.611,9h0a.691.691,0,0,0,.745.35.536.536,0,0,0,.314-.284,1.319,1.319,0,0,0,.125-.6V.12H58.326V15s-2.382-4.039-6.442-11.01c-3.973-6.829-11.47-4.007-11.473,1.87V15s-2.325-4.042-6.382-11.013C32.413,1.213,30.215.032,28.173,0ZM16.463.119c-22.1,0-21.893,31.487.3,31.5h8.671c3.732,0,6.128-2.211,6.125-6.289V17.355s4.863,8.063,6.771,11.219c3.247,5.366,11.1,4.311,11.084-2.392V17.36s4.863,8.06,6.774,11.22c3.247,5.365,11.1,4.308,11.084-2.4V.119h-3.84V25.607h0a2.037,2.037,0,0,1-1.316,2.081h0a1.939,1.939,0,0,1-2.169-.845l0,0,0,0C59.83,26.663,49.422,10,46.82,5.738a.736.736,0,0,0-.813-.344c-.291.093-.477.4-.477.882V25.6h0a2.038,2.038,0,0,1-1.3,2.087h0a1.919,1.919,0,0,1-2.141-.851v0l-.489-.782-1.243-1.99c-1.033-1.654-2.426-3.889-3.9-6.251-2.942-4.722-6.192-9.95-7.491-12.079a.738.738,0,0,0-.816-.341h0c-.295.093-.482.4-.479.878h0V25.48a2.246,2.246,0,0,1-2.244,2.237H16.151a12.1,12.1,0,0,1-9.337-3.779,12.067,12.067,0,0,1-3-8.05A12.253,12.253,0,0,1,6.846,7.721a11.624,11.624,0,0,1,8.919-3.746h5.626V.119Z" transform="translate(-0.001 -0.001)" fill="#ec1c2e"/></svg>