<svg xmlns="http://www.w3.org/2000/svg" width="75.52" height="32" viewBox="0 0 75.52 32"><g transform="translate(-1)"><path d="M1,0H76.52V32H1Z" fill="none" fill-rule="evenodd"/><g transform="translate(3.56 3.331)"><path d="M.1.474l0,2.32H3.94V25.2H7.564V2.794h3.73V.469Z" transform="translate(-0.037 -0.198)" fill-rule="evenodd"/><path d="M0,.372,0,2.823H3.838v22.4H7.592V2.823h3.73V.367ZM.131.5,11.191.5V2.692H7.461v22.4H3.969V2.692H.132V.5Z" transform="translate(0 -0.161)" fill-rule="evenodd"/><path d="M17.567,11.331V10.275h-3.21V28.6h3.369s.044-12.2,0-13.523c-.053-1.585,2.334-1.69,2.334-1.69h1.114V10.116a5.435,5.435,0,0,0-3.607,1.215" transform="translate(-5.169 -3.659)" fill-rule="evenodd"/><path d="M14.385,28.5h3.238c0-.964.042-12.2,0-13.455-.055-1.631,2.372-1.757,2.4-1.758h1.052V10.137a5.46,5.46,0,0,0-3.5,1.208l-.107.088V10.3H14.385Zm3.369.131h-3.5V10.173h3.341v.989a5.367,5.367,0,0,1,3.552-1.147l.056.008v3.4h-1.18a4.264,4.264,0,0,0-1.166.248c-.753.287-1.124.75-1.1,1.376.044,1.306,0,13.4,0,13.524Zm21-18.4-1.91,11.727-2.069-11.78h-3.5L34.881,28.62h2.706l3.4-18.383Z" transform="translate(-5.131 -3.623)" fill-rule="evenodd"/><path d="M44.463,28.55h2.6L50.431,10.3H48.337L46.374,22.351,44.248,10.244H40.881Zm2.707.13H44.355l-.011-.052L40.722,10.114h3.636l.01.054,2,11.4,1.857-11.4h2.363L47.169,28.68Zm8.152-17.338s1.432.052,1.485,2.694,0,4.067,0,4.067H53.837v-4.12s-.053-2.641,1.485-2.641Zm1.592,9.72v4.067s-.053,2.218-1.485,2.166-1.592-2.166-1.592-2.166V19.582h6.685c.531-9.984-5.146-9.614-5.146-9.614-5.517.687-5.146,7.871-5.146,7.871s-.69,11.146,5.252,10.934,4.987-7.712,4.987-7.712Z" transform="translate(-14.66 -3.617)" fill-rule="evenodd"/><path d="M59.2,18h2.842c.01-.3.044-1.7,0-4-.051-2.523-1.38-2.628-1.421-2.63a1.044,1.044,0,0,0-.767.321,3.782,3.782,0,0,0-.652,2.254Zm2.969.13h-3.1V13.946a3.835,3.835,0,0,1,.689-2.346,1.168,1.168,0,0,1,.861-.36h0c.061,0,1.5.086,1.549,2.758.052,2.612,0,4.056,0,4.07ZM60.744,10h-.066c-5.389.671-5.088,7.731-5.085,7.8s-.4,6.975,2.305,9.736a3.693,3.693,0,0,0,2.88,1.136,4.6,4.6,0,0,0,3.5-1.557c1.761-2.063,1.476-5.538,1.426-6.024h-3.43v4a3.115,3.115,0,0,1-.686,1.914,1.168,1.168,0,0,1-.867.317,1.584,1.584,0,0,1-1.391-1.143A3.972,3.972,0,0,1,59.07,25.1V19.48h6.688c.2-3.878-.512-6.64-2.106-8.208A4.3,4.3,0,0,0,60.744,10ZM60.616,28.8A3.8,3.8,0,0,1,57.8,27.627c-2.743-2.8-2.346-9.759-2.342-9.828s-.31-7.245,5.2-7.932a4.375,4.375,0,0,1,3.078,1.312c1.631,1.6,2.351,4.42,2.141,8.37l0,.062H59.2v5.481c0,.015.172,2.051,1.528,2.1a1.024,1.024,0,0,0,.772-.282,3.035,3.035,0,0,0,.645-1.82V20.96h3.678l.007.057c.005.038.475,3.929-1.45,6.182a4.736,4.736,0,0,1-3.6,1.6l-.166,0Zm15.433-17.5s1.434.052,1.486,2.694,0,4.067,0,4.067H74.563v-4.12s-.053-2.641,1.485-2.641Zm1.592,9.72v4.067s-.053,2.218-1.485,2.166-1.592-2.166-1.592-2.166V19.546h6.685C81.779,9.562,76.1,9.932,76.1,9.932c-5.518.687-5.147,7.871-5.147,7.871s-.689,11.146,5.252,10.934,4.987-7.712,4.987-7.712Z" transform="translate(-19.958 -3.58)" fill-rule="evenodd"/><path d="M81,14.5h2.842c.01-.3.045-1.7,0-4-.051-2.526-1.35-2.627-1.421-2.63a1.042,1.042,0,0,0-.767.321A3.789,3.789,0,0,0,81,10.447V14.5Zm2.968.13h-3.1V10.447A3.835,3.835,0,0,1,81.561,8.1a1.169,1.169,0,0,1,.862-.36h0c.061,0,1.5.086,1.549,2.758.052,2.612,0,4.056,0,4.07ZM82.544,6.5H82.48c-5.389.671-5.088,7.731-5.085,7.8s-.4,6.976,2.3,9.736a3.688,3.688,0,0,0,2.88,1.136,4.606,4.606,0,0,0,3.5-1.556c1.761-2.062,1.476-5.538,1.427-6.025H84.08v4a3.112,3.112,0,0,1-.687,1.914,1.158,1.158,0,0,1-.867.317,1.584,1.584,0,0,1-1.391-1.143,3.967,3.967,0,0,1-.264-1.083V15.982H87.56c.2-3.876-.51-6.637-2.1-8.205A4.3,4.3,0,0,0,82.544,6.5Zm-.126,18.81a3.8,3.8,0,0,1-2.812-1.178c-2.743-2.8-2.346-9.759-2.342-9.828s-.31-7.245,5.2-7.932A4.373,4.373,0,0,1,85.546,7.68c1.631,1.6,2.352,4.42,2.142,8.37l0,.062H81v5.481c0,.015.172,2.051,1.528,2.1a1.028,1.028,0,0,0,.772-.282,3.046,3.046,0,0,0,.645-1.82V17.461h3.678l.007.057c.005.038.475,3.928-1.45,6.182a4.738,4.738,0,0,1-3.6,1.6l-.166,0Zm-9.272-.226h3.236V.147H73.146Z" transform="translate(-26.333 -0.082)" fill-rule="evenodd"/><path d="M73.175,24.978H76.28V.176H73.175Zm-.131.131H76.41V.045H73.044ZM91.63,7.505V6.449h-3.21V25.043h3.369s-.013-12.466,0-13.787c.016-1.585,2.335-1.69,2.335-1.69h1.114V6.291A5.435,5.435,0,0,0,91.63,7.505" transform="translate(-26.296 -0.045)" fill-rule="evenodd"/><path d="M74.661,28.567h-3.5V9.843H74.5v.989a5.364,5.364,0,0,1,3.552-1.147l.056.008v3.4H76.93a4.131,4.131,0,0,0-1.14.247,1.488,1.488,0,0,0-1.128,1.379c-.013,1.306,0,13.662,0,13.786v.065ZM31.822,24.681s-.142,1.568-1.38,1.585A1.776,1.776,0,0,1,28.8,24.858V20.4a1.766,1.766,0,0,1,.371-.951c.337-.37,2.176-1.356,2.653-1.779ZM30.514,9.908c-5.517.106-4.774,5.7-4.774,5.7h3.324v-2.42s.23-1.8,1.4-1.8S31.769,13.1,31.769,13.1v2.465a8.105,8.105,0,0,1-1.256,1.074c-.424.282-.916.657-2.228,1.532a8.251,8.251,0,0,0-2.317,2.218c-1.025,1.62-.733,5.467-.177,6.532a3.306,3.306,0,0,0,3.024,1.8A4.716,4.716,0,0,0,32,27.447V28.5h3.13V15.614c0-6.022-4.615-5.7-4.615-5.7Z" transform="translate(-9.103 -3.504)" fill-rule="evenodd"/><path d="M26.685,21.433a2.239,2.239,0,0,0,.316.685,1.451,1.451,0,0,0,1.263.666,1.19,1.19,0,0,0,1.094-.758,2.514,2.514,0,0,0,.22-.764V14.394c-.261.2-.709.476-1.18.765a9.535,9.535,0,0,0-1.358.918,1.7,1.7,0,0,0-.355.911Zm1.555,1.481a1.857,1.857,0,0,1-1.684-1.459l0-.014V16.985a1.809,1.809,0,0,1,.388-.995,9.241,9.241,0,0,1,1.386-.942,12.475,12.475,0,0,0,1.272-.842l.109-.1V21.27c0,.016-.162,1.627-1.444,1.644h-.026ZM28.282,7.9c1.213,0,1.372,1.75,1.374,1.768V12.16l-.008.015a7.874,7.874,0,0,1-1.274,1.094c-.16.106-.33.226-.544.377-.365.256-.864.608-1.687,1.156a8.275,8.275,0,0,0-2.3,2.2c-1,1.588-.728,5.408-.174,6.468a3.242,3.242,0,0,0,2.966,1.761,4.678,4.678,0,0,0,3.136-1.248l.113-.117V25.02h3V12.2a5.937,5.937,0,0,0-1.572-4.532,4.35,4.35,0,0,0-2.973-1.107h0a4.649,4.649,0,0,0-3.605,1.458,5.871,5.871,0,0,0-1.112,4.108h3.2V9.766c.011-.084.252-1.861,1.463-1.861ZM26.637,25.361a3.371,3.371,0,0,1-3.082-1.83c-.564-1.082-.846-4.977.179-6.6a8.435,8.435,0,0,1,2.336-2.237c.822-.548,1.32-.9,1.684-1.155.216-.152.385-.271.545-.377a7.93,7.93,0,0,0,1.226-1.037V9.677c0-.011-.15-1.643-1.243-1.643s-1.33,1.722-1.332,1.74v2.478H23.5l-.008-.057a6.078,6.078,0,0,1,1.137-4.267,4.768,4.768,0,0,1,3.7-1.5A4.494,4.494,0,0,1,31.4,7.567a6.057,6.057,0,0,1,1.614,4.628V25.15H29.755v-.972a4.853,4.853,0,0,1-3.118,1.183ZM22.254,3.792c-.29.947-.953.947-1.05.947-.682,0-.979-.861-.979-1.766,0-.591.141-1.951,1.069-1.951.284,0,.747.128.908.876l.882-.278A1.821,1.821,0,0,0,21.34.161c-1.146,0-2.106.968-2.106,2.855,0,2.058,1.184,2.671,2.086,2.671a1.734,1.734,0,0,0,1.455-.762,2.132,2.132,0,0,0,.354-.862Z" transform="translate(-6.924 -0.087)" fill-rule="evenodd"/><path d="M21.325.189H21.3c-1.24,0-2.041,1.1-2.041,2.79,0,2.48,1.683,2.606,2.02,2.606a1.653,1.653,0,0,0,1.4-.735,1.959,1.959,0,0,0,.33-.78l-.755-.233a1.172,1.172,0,0,1-1.092.931c-.771,0-1.044-.986-1.044-1.831,0-.337.054-2.017,1.134-2.017a.965.965,0,0,1,.956.858l.755-.238A1.731,1.731,0,0,0,21.325.189m-.042,5.526a2.007,2.007,0,0,1-1.427-.582,2.944,2.944,0,0,1-.724-2.154c0-1.774.852-2.921,2.171-2.921h.022a1.873,1.873,0,0,1,1.786,1.51l.014.059-1.009.317-.015-.07c-.155-.717-.6-.824-.844-.824-.955,0-1,1.571-1,1.886,0,.785.239,1.7.913,1.7.214,0,.739-.088.987-.9l.019-.063,1,.308-.022.09a2.14,2.14,0,0,1-.357.854,1.807,1.807,0,0,1-1.508.789m3.144-2.059c0,.242.019,1.261.682,1.261s.689-1.04.689-1.368-.071-1.225-.676-1.225c-.573,0-.7.719-.7,1.331m2.24-.021c0,1.4-.792,1.98-1.545,1.98-.689,0-1.564-.506-1.564-1.973,0-1.275.657-1.951,1.475-1.951,1.294,0,1.635,1.061,1.635,1.944" transform="translate(-6.888 -0.05)" fill-rule="evenodd"/><path d="M27.574,3.271c-.52,0-.63.689-.63,1.267,0,.359.06,1.195.617,1.195.515,0,.623-.708.623-1.3,0-.272-.044-1.16-.611-1.16m-.013,2.592c-.475,0-.748-.483-.748-1.325,0-.914.262-1.4.76-1.4.689,0,.742.988.742,1.29,0,1.184-.411,1.432-.755,1.432m-.077-3.226c-.856,0-1.409.74-1.409,1.885,0,1.408.808,1.908,1.5,1.908,1.023,0,1.48-.962,1.48-1.915,0-.565-.153-1.879-1.569-1.879m.09,3.924c-.811,0-1.629-.63-1.629-2.038,0-1.225.6-2.016,1.54-2.016.511,0,1.7.2,1.7,2.01,0,1.412-.809,2.045-1.611,2.045m4.169-3.982a1.612,1.612,0,0,0-1.191.584v-.52h-.869V6.432h.869v-2.6c.309-.314.541-.484.8-.484s.316.228.316.435V6.432h.869V3.548c0-.627-.257-.969-.792-.969" transform="translate(-9.34 -0.931)" fill-rule="evenodd"/><path d="M33.8,5.538h.738V2.719c0-.608-.237-.9-.726-.9a1.548,1.548,0,0,0-1.143.563l-.114.121V1.878h-.738V5.537h.738V2.976l.019-.019a1.278,1.278,0,0,1,.845-.5c.253,0,.381.168.381.5Zm.869.131h-1V2.953c0-.259-.075-.369-.25-.369-.239,0-.46.17-.733.446V5.668h-1V1.749h1v.424a1.591,1.591,0,0,1,1.126-.488c.391,0,.858.179.858,1.034Zm2.667-2.751a.812.812,0,0,0-.6-.37c-.644,0-.676.9-.676,1.182,0,.314.083,1.139.682,1.139a.792.792,0,0,0,.6-.363ZM38.2.2V5.6h-.869V5.168a1.247,1.247,0,0,1-.94.5c-.779,0-1.281-.862-1.281-1.952s.515-1.965,1.288-1.965a1.163,1.163,0,0,1,.933.5V.2H38.2Z" transform="translate(-11.406 -0.102)" fill-rule="evenodd"/><path d="M38.617,2.577c-.531,0-.611.7-.611,1.117,0,.11.017,1.075.617,1.075a.708.708,0,0,0,.533-.321V2.9a.7.7,0,0,0-.54-.328M38.624,4.9c-.552,0-.748-.649-.748-1.2,0-.8.264-1.248.742-1.248a.85.85,0,0,1,.657.4l.013.017V4.491l-.013.018a.855.855,0,0,1-.65.388m-.341-3.119c-.708,0-1.222.8-1.222,1.9s.512,1.886,1.216,1.886a1.18,1.18,0,0,0,.89-.476l.115-.134V5.5h.739V.234h-.738V2.4l-.116-.144a1.123,1.123,0,0,0-.883-.474M38.276,5.7c-.78,0-1.347-.848-1.347-2.017s.57-2.031,1.354-2.031a1.214,1.214,0,0,1,.868.392V.1h1V5.632h-1V5.3a1.235,1.235,0,0,1-.874.395m3.206-2.43c.038-.7.4-.9.689-.9.244,0,.682.157.714.9Zm2.086-.506a1.411,1.411,0,0,0-1.4-1.046c-.947,0-1.6.762-1.6,1.916,0,1.282.76,2,1.629,2a1.533,1.533,0,0,0,1.4-.969l-.708-.328a.767.767,0,0,1-.682.527c-.251,0-.689-.15-.721-1.018h2.176a2.976,2.976,0,0,0-.09-1.083Z" transform="translate(-13.294 -0.066)" fill-rule="evenodd"/><path d="M43.563,3.257h1.264c-.06-.735-.546-.774-.645-.774-.132,0-.554.058-.619.774Zm1.4.131H43.423l0-.068c.04-.712.416-.966.755-.966.123,0,.74.047.78.967Zm-.789-1.553c-.915,0-1.531.744-1.531,1.851,0,1.33.81,1.936,1.564,1.936a1.441,1.441,0,0,0,1.308-.872l-.589-.273a.8.8,0,0,1-.713.506c-.175,0-.749-.077-.787-1.081l0-.067h2.182a2.8,2.8,0,0,0-.092-1,1.34,1.34,0,0,0-1.341-1Zm.032,3.917c-.815,0-1.694-.646-1.694-2.066,0-1.185.668-1.981,1.662-1.981A1.483,1.483,0,0,1,45.642,2.8,3,3,0,0,1,45.734,3.9l0,.061h-2.17c.052.8.471.888.653.888a.689.689,0,0,0,.616-.476l.036-.072.827.383-.029.06a1.591,1.591,0,0,1-1.456,1ZM45.333.26H44.309l-.856,1.1h.65Z" transform="translate(-15.305 -0.122)" fill-rule="evenodd"/><path d="M44.042,1.255h.492L45.617.289H44.8l-.755.966Zm.541.131h-.809L44.731.158h1.227L44.582,1.386ZM51.044.266V3.834h-.013L49.074.266h-1v5.32h.941V1.876h.012l2.022,3.711h.934V.266Z" transform="translate(-15.759 -0.086)" fill-rule="evenodd"/><path d="M53.473,5.545H54.3V.355h-.809V3.924h-.1l-.032-.034L51.419.356h-.893v5.19h.809V1.835h.1l.031.034,2,3.677Zm.96.131H53.395l-1.93-3.542V5.676H50.394V.225h1.1l1.866,3.4V.225h1.071Zm2.548-2.014c-.323.068-1.176.25-1.176.843a.418.418,0,0,0,.414.452,1.369,1.369,0,0,0,.762-.4Zm.781,1.113a3,3,0,0,0,.115.735h-.792a3.255,3.255,0,0,1-.074-.371,1.3,1.3,0,0,1-.95.432.979.979,0,0,1-1.037-.991c0-.937.933-1.341,1.957-1.429V3.041a.524.524,0,0,0-.548-.566.992.992,0,0,0-.829.5l-.488-.452a1.606,1.606,0,0,1,1.329-.661A1.159,1.159,0,0,1,57.762,3.1Z" transform="translate(-18.142 -0.11)" fill-rule="evenodd"/><path d="M59.484,4.6c-.349.076-1.046.26-1.046.762a.353.353,0,0,0,.349.387,1.277,1.277,0,0,0,.7-.362V4.6Zm-.7,1.28a.483.483,0,0,1-.48-.518c0-.65.893-.836,1.229-.906l.079-.017V5.45l-.022.019a1.408,1.408,0,0,1-.806.415ZM59,3.272a.59.59,0,0,1,.614.632v.168l-.06.005c-.571.049-1.9.28-1.9,1.364a.911.911,0,0,0,.971.926,1.238,1.238,0,0,0,.9-.413l.093-.09.018.128a3.086,3.086,0,0,0,.06.314h.655a3.154,3.154,0,0,1-.095-.669V3.957a1.091,1.091,0,0,0-1.251-1.169,1.542,1.542,0,0,0-1.24.589l.388.36A1.025,1.025,0,0,1,59,3.272ZM58.629,6.5a1.047,1.047,0,0,1-1.1-1.056c0-.828.712-1.368,1.957-1.489V3.9A.462.462,0,0,0,59,3.4a.926.926,0,0,0-.774.47l-.044.063L57.6,3.391l.035-.047a1.676,1.676,0,0,1,1.382-.687,1.224,1.224,0,0,1,1.382,1.3V5.637a2.919,2.919,0,0,0,.113.715l.028.085H59.6l-.012-.049q-.032-.126-.055-.253a1.32,1.32,0,0,1-.906.364Zm3.882-2.291c-.355-.085-.689-.163-.689-.5a.478.478,0,0,1,.515-.442,1.19,1.19,0,0,1,.689.292l.083.058.5-.463a1.945,1.945,0,0,0-1.281-.534,1.236,1.236,0,0,0-1.32,1.175c0,.933.863,1.133,1.236,1.2.348.064.637.164.637.456s-.29.378-.541.378a1.321,1.321,0,0,1-.888-.392l-.528.406a1.713,1.713,0,0,0,1.4.691,1.251,1.251,0,0,0,1.423-1.218c0-.826-.785-1-1.242-1.111" transform="translate(-20.71 -0.972)" fill-rule="evenodd"/><path d="M62.882,5.2a1.621,1.621,0,0,0,1.309.616,1.223,1.223,0,0,0,1.357-1.153c0-.769-.74-.942-1.183-1.045l-.01,0,.015-.064-.022.062c-.36-.086-.732-.176-.732-.56a.54.54,0,0,1,.58-.507,1.242,1.242,0,0,1,.726.3l.04.028.409-.376a1.827,1.827,0,0,0-1.182-.472,1.176,1.176,0,0,0-1.254,1.11c0,.914.89,1.084,1.183,1.14.358.066.691.175.691.52,0,.327-.326.443-.607.443a1.337,1.337,0,0,1-.89-.373l-.432.332Zm1.309.746a1.785,1.785,0,0,1-1.453-.714l-.045-.052.624-.48.04.034a1.26,1.26,0,0,0,.846.376c.22,0,.476-.082.476-.312,0-.2-.164-.314-.584-.392-.856-.163-1.29-.589-1.29-1.267A1.3,1.3,0,0,1,64.191,1.9a2,2,0,0,1,1.323.548l.058.048-.6.548-.127-.086A1.124,1.124,0,0,0,64.2,2.68a.412.412,0,0,0-.449.376c0,.262.239.339.632.433l-.008.065.015-.064-.015.064.024-.061c.448.1,1.284.3,1.284,1.172a1.317,1.317,0,0,1-1.489,1.283Zm3.844-3.228V2.031H67.43V.807h-.869V2.031h-.522v.691h.522V4.738a1.165,1.165,0,0,0,.431.968,1.547,1.547,0,0,0,1.043.171V5.094c-.328-.007-.605-.029-.605-.356V2.721h.605Z" transform="translate(-22.569 -0.319)" fill-rule="evenodd"/><path d="M67.95,2.62h.521V4.7a1.117,1.117,0,0,0,.4.916,1.418,1.418,0,0,0,.939.16V5.121c-.273-.008-.6-.043-.6-.42V2.62h.6V2.059h-.6V.834h-.739V2.059H67.95Zm1.612,3.294a1.2,1.2,0,0,1-.765-.193A1.217,1.217,0,0,1,68.341,4.7V2.75h-.522V1.929h.522V.7h1V1.929h.605v.82H69.34V4.7c0,.241.16.283.541.291h.064V5.9l-.063,0c-.115.005-.221.009-.321.009Z" transform="translate(-24.415 -0.282)" fill-rule="evenodd"/></g></g></svg>