<svg xmlns="http://www.w3.org/2000/svg" width="189.33" height="32" viewBox="0 0 189.33 32"><path d="M24.4,0l-6.55,17.345L11.265,0H0V31.437H8.107V10.654l7.96,20.783h3.577l7.917-20.783V31.437h8.107V0Z" fill="#00aeef"/><path d="M31.14,21.029V19c-.751-1.083-2.45-1.6-4.044-1.6-1.887,0-3.632.852-3.632,2.641s1.745,2.641,3.632,2.641a5.043,5.043,0,0,0,4.044-1.649Zm0,5.84V24.606a9.408,9.408,0,0,1-7.067,2.828c-3.488,0-7.819-2.407-7.819-7.5,0-5.51,4.328-7.344,7.819-7.344,3.023,0,5.707.985,7.067,2.684V13.013c0-1.979-1.69-3.346-4.617-3.346a9.933,9.933,0,0,0-6.36,2.45L17.479,7.073A16.061,16.061,0,0,1,27.794,3.539c5.467,0,10.61,2.031,10.61,9.1V26.871H31.14Z" transform="translate(20.97 4.566)" fill="#00aeef"/><path d="M26.355,23.9l3.016-5.18a14.271,14.271,0,0,0,8.015,3.06c2.164,0,3.06-.618,3.06-1.6,0-2.826-13.239.092-13.239-9.142,0-4.008,3.488-7.5,9.749-7.5a15.938,15.938,0,0,1,9.52,3.014L43.7,11.7a10.157,10.157,0,0,0-6.692-2.505c-1.7,0-2.828.662-2.828,1.557,0,2.5,13.187-.092,13.187,9.241,0,4.328-3.811,7.443-10.315,7.443-4.1,0-8.29-1.369-10.7-3.534" transform="translate(34.001 4.566)" fill="#00aeef"/><path d="M51.563,31.437V18.184c0-2.771-1.459-3.666-3.776-3.666a5.564,5.564,0,0,0-4.374,2.21V31.434H36.148V0h7.264V11.451a10.271,10.271,0,0,1,7.864-3.344c5.189,0,7.541,2.922,7.541,7.118V31.437H51.563Z" transform="translate(46.636)" fill="#00aeef"/><path d="M61.579,21.029V19c-.753-1.083-2.45-1.6-4.054-1.6-1.887,0-3.632.852-3.632,2.641s1.745,2.641,3.632,2.641a5.053,5.053,0,0,0,4.054-1.649Zm0,5.84V24.606a9.426,9.426,0,0,1-7.067,2.828c-3.49,0-7.828-2.407-7.828-7.5,0-5.51,4.338-7.344,7.828-7.344,3.014,0,5.7.985,7.067,2.684V13.013c0-1.979-1.7-3.346-4.617-3.346a9.971,9.971,0,0,0-6.369,2.45L47.909,7.073A16.068,16.068,0,0,1,58.233,3.539c5.464,0,10.6,2.031,10.6,9.1V26.871H61.579Z" transform="translate(60.228 4.566)" fill="#00aeef"/><path d="M68.976,25.595c2.872,0,5.045-2.13,5.045-5.565,0-3.389-2.173-5.519-5.045-5.519a5.812,5.812,0,0,0-4.338,2.075v6.978a5.775,5.775,0,0,0,4.338,2.031Zm-11.593,5.84V0h7.255V11.359a8.416,8.416,0,0,1,6.744-3.252c5.7,0,10.038,4.479,10.038,11.922C81.42,27.759,76.991,32,71.383,32a8.705,8.705,0,0,1-6.744-3.2v2.641H57.383Z" transform="translate(74.032)" fill="#00aeef"/><path d="M68.516,0h7.255V31.437H68.516Z" transform="translate(88.395)" fill="#00aeef"/><path d="M84.389,9.381c-3.16,0-4.383,1.887-4.672,3.534H89.1c-.195-1.6-1.367-3.534-4.713-3.534M72.32,15.464A11.712,11.712,0,0,1,84.389,3.539c6.735,0,11.638,4.947,11.638,12.676v1.656H79.818c.518,2.022,2.4,3.721,5.7,3.721a9.493,9.493,0,0,0,5.565-1.933l3.149,4.759c-2.256,2.022-6.03,3.016-9.511,3.016-7.022,0-12.4-4.571-12.4-11.971" transform="translate(93.302 4.566)" fill="#00aeef"/></svg>