<svg xmlns="http://www.w3.org/2000/svg" width="155.104" height="32" viewBox="0 0 155.104 32"><g transform="translate(-10 -10.799)"><path d="M91.2,10.8s-2.847,1.531-1.6,3.488v7.4h-.071a2.667,2.667,0,0,0-.748-.072h-.249a10.878,10.878,0,0,0-3.916.391,16.636,16.636,0,0,0-2.99,3.952v9.468a3.448,3.448,0,0,0,1.958,3.132c.57.605,4.343.463,4.343.463L89.6,36.214H87.607a3.375,3.375,0,0,1-3.239-3.382V24.646c0,.036,1.957-.178,2.171-.143a3.322,3.322,0,0,1,3.026,3.275v6.264l.071-.071v1.495a3.481,3.481,0,0,0,2.741,3.417,2.666,2.666,0,0,0,.748.071h.249a1.79,1.79,0,0,0,.855-.214,2.277,2.277,0,0,0,.462-.676c.071-.142.178-.32.25-.5l.249-.5.214-.427a1.266,1.266,0,0,0,.143-.32c.036-.036.035-.071.071-.107a3.547,3.547,0,0,1-3.275-3.453v-15.2A2.025,2.025,0,0,1,93.48,15.89c.925-.5-.569-1.281-.569-1.281A3.594,3.594,0,0,1,91.2,10.8h0ZM75.683,12.543a3.21,3.21,0,0,0-2.1,1.032,1.577,1.577,0,0,0-.249,2.242l1.21.961c-.5.961-3.809.391-3.809.391l.178.89a6.807,6.807,0,0,0,2.812,0,2.831,2.831,0,0,0,.89-.391,4.308,4.308,0,0,0,.677-.712c.285-.392.534-.748.783-1.139a1.673,1.673,0,0,0,.214-.32,2.454,2.454,0,0,0,.534-1.566,2.4,2.4,0,0,0-.356-1,.868.868,0,0,0-.391-.32,1.84,1.84,0,0,0-.391-.072Zm101.161.285L174.1,16.85v4.773l-3.773-.04V15.177L167.589,19.2v2.354l-.426,0s-1.745,2.029-1.78,2.136l-.178.427h2.384V35.929a3.509,3.509,0,0,0,2.741,3.417,5.315,5.315,0,0,0,.748.072h.25a1.787,1.787,0,0,0,.854-.214,1.451,1.451,0,0,0,.463-.677c.071-.142.178-.32.249-.462.071-.178.178-.32.25-.5l.214-.427c.036-.107.106-.214.142-.32.036-.036.036-.071.072-.107a3.376,3.376,0,0,1-3.24-3.382V24.112H174.1V35.894a3.511,3.511,0,0,0,2.741,3.417,5.3,5.3,0,0,0,.747.071h.25a1.787,1.787,0,0,0,.854-.214,1.449,1.449,0,0,0,.463-.676c.071-.142.178-.321.249-.463.071-.178.178-.32.25-.5l.214-.427c.036-.107.107-.213.143-.32.036-.036.071-.071.071-.107a3.352,3.352,0,0,1-3.239-3.382V24.112H178.2l2.278-2.42-3.63-.039V12.829Zm-101.586.783c.356,0,.462.356.462.712-.036.392-.391,1-.747,1a.913.913,0,0,1-.855-.783c0-.356.748-.926,1.139-.926Zm21.211,2.7-1.993,2.242,2.278,1.958,1.816-2.278Zm37.1,4.451a25.337,25.337,0,0,1-4.058.819l-.926,1.744a34.36,34.36,0,0,1,3.987-.712Zm-63.537.356-2.741,4.023V35.36A3.491,3.491,0,0,0,69.1,38.421a2.249,2.249,0,0,0,.855.32h.071a1.789,1.789,0,0,0,.427.072c3.537.58,4.475-1.408,4.719-2.329a3.526,3.526,0,0,0,2.542,2.258,5.3,5.3,0,0,0,.747.072h.25a1.79,1.79,0,0,0,.855-.214,1.293,1.293,0,0,0,.462-.677c.071-.142.178-.32.25-.462l.249-.5.214-.427c.036-.107.107-.214.143-.32.036-.036.071-.071.071-.107a3.343,3.343,0,0,1-3.239-3.346V21.121l-2.741,4.023v10.18a3.492,3.492,0,0,0,.076.712H72.875v.036a3.368,3.368,0,0,1-2.848-3.311V21.121Zm28.333,0L95.62,25.144v10.18a3.509,3.509,0,0,0,2.741,3.417,5.315,5.315,0,0,0,.748.072h.25a1.787,1.787,0,0,0,.854-.214,1.294,1.294,0,0,0,.463-.677c.071-.142.178-.32.249-.462l.25-.5.214-.427c.036-.107.106-.214.142-.32.036-.036.072-.071.072-.107a3.344,3.344,0,0,1-3.24-3.346V21.121Zm46.452.285-2.349,3.275c2.349,1.887,8.436.569,8.472.605-2.278,3.061-4.984,5.7-6.372,9.29a19.566,19.566,0,0,0-.961,3.2c0,.071-.143,1.21-.036,1.1.463-.427,7.867.89,8.935.569s2.528-2.848,2.528-2.848l-7.9-.533a21.839,21.839,0,0,1,2.385-5.446,36.37,36.37,0,0,1,3.737-4.663,11.394,11.394,0,0,0,1.922-2.954c0-.071.25-.961.25-.961-7.119,2.029-10.607-.641-10.607-.641h0Zm17.1.032a4.624,4.624,0,0,0-2.794.894,12.9,12.9,0,0,0-2.741,3.453,8.93,8.93,0,0,0-1.388,4.307v4.343a6.793,6.793,0,0,0,.249,2.242,3.937,3.937,0,0,0,1.673,1.886,8.915,8.915,0,0,0,6.051.926.131.131,0,0,0,.107-.036l2.136-3.2h-4.271c.036-.036-.178,0-.143-.036-.071.178-1.139-.249-1.281-.32a2.6,2.6,0,0,1-.961-.783,4.738,4.738,0,0,1-.819-3.168c2.741-.676,6.977-3.274,6.941-7.4-.02-2.323-1.358-3.08-2.759-3.1Zm25.059,0a4.624,4.624,0,0,0-2.794.894,12.9,12.9,0,0,0-2.741,3.453,8.931,8.931,0,0,0-1.389,4.307v4.343a6.792,6.792,0,0,0,.25,2.242,3.765,3.765,0,0,0,1.672,1.886,8.915,8.915,0,0,0,6.051.926.131.131,0,0,0,.107-.036l2.136-3.2h-4.271c0-.036-.143,0-.143-.036-.071.178-1.139-.249-1.281-.32a2.6,2.6,0,0,1-.961-.783,4.738,4.738,0,0,1-.819-3.168c2.741-.676,6.977-3.274,6.941-7.4-.02-2.323-1.357-3.08-2.758-3.1ZM62.8,21.8,60.06,25.82v3.63c-.356.961-2.634,1.211-4.414,2.1-1.815.925-2.883,4.77-3.025,5.41-.036.036-.036.035-.036.071a2.4,2.4,0,0,0-.071.5,1.952,1.952,0,0,0,1.958,1.958h2.171a2.075,2.075,0,0,0,.677-.107,4.374,4.374,0,0,0,2.741-2.634V36c-.178.356-2.634.391-4.023.391h-.961a.516.516,0,0,1-.391-.89,1.641,1.641,0,0,1,.533-.32,2.758,2.758,0,0,0,.57-.249c.427-.178.854-.356,1.281-.57a2.268,2.268,0,0,0,.5-.285,6.553,6.553,0,0,0,.784-.605c.285-.214.534-.462.819-.676.214-.178.462-.391.676-.605a1.648,1.648,0,0,0,.25-.25v4.093a3.509,3.509,0,0,0,2.741,3.417,5.3,5.3,0,0,0,.747.072h.25a1.79,1.79,0,0,0,.855-.214,1.649,1.649,0,0,0,.462-.677c.071-.178.178-.32.25-.5s.178-.32.249-.5l.214-.427c.036-.107.107-.213.143-.32.036-.036.035-.071.071-.107A3.425,3.425,0,0,1,62.8,33.437V21.8Zm76.884,0-2.741,4.022v3.63c-.356.961-2.634,1.211-4.414,2.1-1.815.925-2.883,4.77-3.025,5.41-.036.036-.036.035-.036.071a2.4,2.4,0,0,0-.071.5,1.952,1.952,0,0,0,1.958,1.958h2.171a2.076,2.076,0,0,0,.677-.107,4.373,4.373,0,0,0,2.741-2.634V36c-.178.356-2.6.391-4.023.391h-.961a.516.516,0,0,1-.391-.89,1.641,1.641,0,0,1,.533-.32,2.758,2.758,0,0,0,.57-.249c.427-.178.854-.356,1.281-.57a2.268,2.268,0,0,0,.5-.285,6.553,6.553,0,0,0,.784-.605c.285-.214.534-.462.819-.676.214-.178.462-.391.676-.605a1.65,1.65,0,0,0,.25-.25v4.093a3.509,3.509,0,0,0,2.741,3.417,5.3,5.3,0,0,0,.747.072h.25a1.79,1.79,0,0,0,.855-.214,1.649,1.649,0,0,0,.462-.677c.071-.178.178-.32.25-.5s.178-.32.249-.5l.214-.427c.036-.107.107-.213.143-.32.036-.036.035-.071.071-.107a3.451,3.451,0,0,1-3.275-3.347V21.8Zm21.135,3.262a.939.939,0,0,1,.328.048.741.741,0,0,1,.391.819,11.133,11.133,0,0,1,0,1.887,1.278,1.278,0,0,1-.534.854,1.79,1.79,0,0,1-.961.178h-1.957a3.049,3.049,0,0,1-.57,0c-.036,0,.5-1.886.534-2.029a1.722,1.722,0,0,1,.107-.249,2.011,2.011,0,0,1,.569-.89,2.649,2.649,0,0,1,1.032-.426,6.473,6.473,0,0,1,1.061-.191Zm25.059,0a.934.934,0,0,1,.327.048.741.741,0,0,1,.391.819,11.136,11.136,0,0,1,0,1.887,1.278,1.278,0,0,1-.534.854,1.787,1.787,0,0,1-.961.178h-1.958a3.049,3.049,0,0,1-.57,0c-.036,0,.5-1.886.534-2.029a1.292,1.292,0,0,0,.107-.249,2.013,2.013,0,0,1,.57-.89,2.645,2.645,0,0,1,1.032-.426,6.482,6.482,0,0,1,1.062-.191ZM154.812,39.951a21.9,21.9,0,0,1-4.058.818l-.925,1.744c.5-.178,3.986-.712,3.986-.712l1-1.85Zm-65.068.285a25.337,25.337,0,0,1-4.058.819L84.761,42.8a34.36,34.36,0,0,1,3.987-.712l1-1.851Z" transform="translate(-25.162)" fill="#c6b995"/><path d="M24.9,12.34a.231.231,0,0,0-.077.012,32.589,32.589,0,0,1-3.311.605.355.355,0,0,0-.178.143l-.569,1.139c-.107.214.071.426.249.32,1-.178,2.812-.5,3.311-.569a.355.355,0,0,0,.178-.143l.605-1.138a.25.25,0,0,0-.207-.368Zm64.733,1.321a4.312,4.312,0,0,0-.848.044,3.849,3.849,0,0,0-2.776,1.744,4,4,0,0,0-.356,1.317,3.809,3.809,0,0,1-.214.961,18.718,18.718,0,0,0,2.385.25c-.107,0,.142-.569.142-.605a1.337,1.337,0,0,1,.748-.5,5.475,5.475,0,0,1,1.708-.178h.926c.107,0,.854.107.926,0a20.747,20.747,0,0,0-5.979,11.5,10.958,10.958,0,0,0,8.649,12.173A4.058,4.058,0,0,0,98.5,39.76c1.139-.89,2.135-1.957,3.239-2.883l-.356,3.951,1.637-1.46V34.1a13.211,13.211,0,0,0-.391-4.271,8.034,8.034,0,0,0-3.347-4.236,6.841,6.841,0,0,0-2.42-1,1.068,1.068,0,0,0-.819.107,1,1,0,0,0-.285,1.032,9.2,9.2,0,0,0,1.068,2.848c.071.107,1.067,1.709,1.032,1.744l.961-1.032s2.634,2.207,2.777,4.876l.035,1.708a8.066,8.066,0,0,1-1.21.392,21.322,21.322,0,0,1-2.171.462c-2.919.356-6.194-.142-7.866-2.848a.035.035,0,0,0-.036-.036c-3.168-5.161-1.744-9.219-1.744-9.219s1.069-4.948,7.761-6.443a28.964,28.964,0,0,1,3.916-.641,1.957,1.957,0,0,0,1.245-.427,6.632,6.632,0,0,0,.819-.926,8.9,8.9,0,0,0,.819-1.388c-.071.142-.747.036-.89.036-1.673-.036-3.345.035-5.054-.072A34.989,34.989,0,0,1,92.13,14.1a17.056,17.056,0,0,0-2.5-.435Zm68.419,1.574a2.136,2.136,0,1,0,2.136,2.136A2.142,2.142,0,0,0,158.05,15.235ZM26.4,15.449a.321.321,0,0,0-.3.142l-.641.926a.691.691,0,0,0-.107.641l.356,1.032a.263.263,0,0,1-.25.356H24.109a.3.3,0,0,1-.285-.214l-.356-.961a.175.175,0,0,0-.32-.036l-.32.57a.362.362,0,0,1-.285.178l-3.987-.071a.223.223,0,0,1-.178-.32l.5-1.068a.245.245,0,0,0-.178-.356c-1.068-.178-4.628-.32-7.084,4.876-3.844,8.116,4.307,8.614,8.258,8.792,3.915.178,5.518,2.064,5.162,5.018-.463,4.236-14.167,2.1-14.345-1.637,0,0-1.424,1.032-.178,3.488,1.424,2.812,8.115,4.984,13.027,1.958,4.948-3.026,4.7-7.51,3.24-9.9S16.6,25.522,16.6,25.522s-4.236-.676-4.164-2.634c.107-2.492,2.848-2.634,2.848-2.634l.677-.036a.23.23,0,0,1,.214.214l-.036.748a.336.336,0,0,0,.356.356l4.237-.143a.271.271,0,0,0,.178-.071l.427-.356a.453.453,0,0,1,.641.035l.249.285a.254.254,0,0,0,.214.107l2.74-.142a4.317,4.317,0,0,0,1.5-5.624.331.331,0,0,0-.272-.178h0Zm131.65.712a1.2,1.2,0,0,1,1.21,1.21,1.223,1.223,0,0,1-1.21,1.21,1.21,1.21,0,1,1,0-2.42ZM99.925,19.542,97.9,21.748l2.314,1.993,1.815-2.278-2.1-1.922Z" transform="translate(0 -0.912)" fill="#2f5241"/></g></svg>