<svg xmlns="http://www.w3.org/2000/svg" width="125.098" height="32" viewBox="0 0 125.098 32"><g transform="translate(-1697.859 1684.347)"><g transform="translate(1697.859 -1684.347)"><g transform="translate(0 0)"><path d="M3564.844-378.756c-7.291.052-13.255,8.156-13.255,15.224,0,7.438,4.372,16.511,13.255,16.482s13.494-9.8,13.494-16.482C3578.338-370.915,3572.135-378.808,3564.844-378.756Zm0,.277c6.1,0,7.749,6.74,7.749,14.947,0,10.829-1.986,16.172-7.749,16.161s-7.638-4.383-7.638-16.161C3557.206-370.91,3558.741-378.479,3564.844-378.479Z" transform="translate(-3528.358 378.895)"/><path d="M3906.768-364.885c-.033-8.043,6.4-15.167,11.853-15.52a14.526,14.526,0,0,1,5.975,1.4c1.073.466,3.262-.209,3.651-1.447h.212v10.955h-.212c0-.467-2.029-10.637-9.626-10.637-5.612,0-6.154,9.867-6.154,15.245s.164,16.024,6.712,16.024c3.172,0,5.52-1.388,6.129-4.2v-8.537h-2.663v-.364h10.321v.364h-2.546v12.481h-.208a2.464,2.464,0,0,0-2.514-1.795c-2.684.008-5.215,2.34-8.3,2.311-8.16-.075-12.6-8.246-12.631-16.289Z" transform="translate(-3854.381 380.448)"/><path d="M3271.813-369.646H3268.6v-.361h11.258v.361h-2.824l8.044,21.844c2.515-7.744,4.464-13.468,7.086-21.844h-2.794v-.361h5.944v.361h-2.707l-9.776,30.477Z" transform="translate(-3268.599 370.864)"/><path d="M4210.351-346.845l-.051-23.05h-3.059v-.345h11.269v.345h-3.057l.068,25.274c.676,2.894,1.88,5.09,5.991,5.123a7.922,7.922,0,0,0,7.944-5.8v-24.6h-3.5v-.335h28.64l.06,11.065h-.275c-.531-7.144-3.288-9.844-8.108-10.632a39.692,39.692,0,0,0-5.6-.087v14.122c1.916.148,3.957.027,5.332-1.154,1.251-1.074,1.6-3.556,1.7-4.564h.242v12.3h-.262c-.075,0-.176-3.086-1.676-4.55a5.83,5.83,0,0,0-5.332-1.485v15.085c2.684,0,4.823.227,6.681-.282,5.647-1.548,7.635-6.312,7.62-11.09h.314v11.729h-22.465v-.357h2.54V-369.9h-5.488v24.6c-.622,2.353-2.9,6.247-8.722,6.22-5.417-.025-10.791-2.467-10.8-7.766Z" transform="translate(-4130.189 371.079)"/></g></g></g></svg>